<svg xmlns="http://www.w3.org/2000/svg" xmlns:xlink="http://www.w3.org/1999/xlink" viewBox="0 0 500 500"><defs><clipPath id="freepik--clip-path--inject-130"><path d="M354.38,195.51A59.93,59.93,0,0,0,272,140.45a72.41,72.41,0,0,0-135.76,16A62.32,62.32,0,0,0,140.33,281H338.65a44.18,44.18,0,0,0,15.73-85.47Z" style="fill:none"></path></clipPath></defs><g id="freepik--background-complete--inject-130"><rect y="382.4" width="500" height="0.25" style="fill:#ebebeb"></rect><rect x="394.67" y="398.49" width="55.23" height="0.25" style="fill:#ebebeb"></rect><rect x="321.81" y="393.25" width="8.69" height="0.25" style="fill:#ebebeb"></rect><rect x="372.47" y="389.21" width="19.19" height="0.25" style="fill:#ebebeb"></rect><rect x="52.46" y="390.89" width="43.19" height="0.25" style="fill:#ebebeb"></rect><rect x="215.33" y="397.35" width="45.72" height="0.25" style="fill:#ebebeb"></rect><rect x="140.46" y="393.12" width="93.68" height="0.25" style="fill:#ebebeb"></rect><path d="M242.72,332.09A5.71,5.71,0,0,1,237,337.8H43.91a5.71,5.71,0,0,1-5.7-5.71V60.66A5.71,5.71,0,0,1,43.91,55H237a5.71,5.71,0,0,1,5.71,5.71m-.25,0A5.47,5.47,0,0,0,237,55.2H43.91a5.46,5.46,0,0,0-5.45,5.46V332.09a5.46,5.46,0,0,0,5.45,5.46H237a5.47,5.47,0,0,0,5.46-5.46" style="fill:#ebebeb"></path><path d="M453.31,337.8H260.21a5.72,5.72,0,0,1-5.71-5.71V60.66A5.72,5.72,0,0,1,260.21,55h193.1A5.71,5.71,0,0,1,459,60.66V332.09A5.71,5.71,0,0,1,453.31,337.8ZM260.21,55.2a5.47,5.47,0,0,0-5.46,5.46V332.09a5.47,5.47,0,0,0,5.46,5.46h193.1a5.47,5.47,0,0,0,5.46-5.46V60.66a5.47,5.47,0,0,0-5.46-5.46Z" style="fill:#ebebeb"></path><path d="M193.15,147.56a28.41,28.41,0,0,0-39.06-26.11,34.35,34.35,0,0,0-64.4,7.6,29.56,29.56,0,0,0,1.93,59h94.07a21,21,0,0,0,7.46-40.54Z" style="fill:#e0e0e0"></path><path d="M434,284A28.41,28.41,0,0,0,395,257.89a34.35,34.35,0,0,0-64.4,7.6,29.56,29.56,0,0,0,1.93,59.06h94.07A21,21,0,0,0,434,284Z" style="fill:#f5f5f5"></path><path d="M344,191.86a14.75,14.75,0,0,0-20.26-13.55,17.81,17.81,0,0,0-33.4,3.95,15.33,15.33,0,0,0,1,30.63h48.79a10.87,10.87,0,0,0,3.87-21Z" style="fill:#e0e0e0"></path><path d="M412.77,103.83A19.49,19.49,0,0,0,386,85.93a23.54,23.54,0,0,0-44.13,5.21,20.26,20.26,0,0,0,1.32,40.47h64.46a14.36,14.36,0,0,0,5.12-27.78Z" style="fill:#ebebeb"></path><path d="M206.09,275.22a19.47,19.47,0,0,0-26.77-17.89,23.53,23.53,0,0,0-44.12,5.2A20.26,20.26,0,0,0,136.51,303H201a14.36,14.36,0,0,0,5.12-27.78Z" style="fill:#f5f5f5"></path><path d="M131,175.06a.51.51,0,0,1-.35-.15.42.42,0,0,1-.11-.16.43.43,0,0,1,0-.19.48.48,0,0,1,0-.2.42.42,0,0,1,.11-.16.53.53,0,0,1,.54-.11.64.64,0,0,1,.16.11.49.49,0,0,1,.15.36.43.43,0,0,1,0,.19.42.42,0,0,1-.11.16A.51.51,0,0,1,131,175.06Z" style="fill:#e0e0e0"></path><path d="M130.5,196.6a.5.5,0,0,1,.5-.5h0a.5.5,0,0,1,.5.5h0a.5.5,0,0,1-.5.5h0A.5.5,0,0,1,130.5,196.6Zm0-5.51a.5.5,0,0,1,.5-.5h0a.5.5,0,0,1,.5.5h0a.5.5,0,0,1-.5.5h0A.51.51,0,0,1,130.5,191.09Zm0-5.51a.5.5,0,0,1,.5-.5h0a.5.5,0,0,1,.5.5h0a.5.5,0,0,1-.5.5h0A.51.51,0,0,1,130.5,185.58Zm0-5.51a.5.5,0,0,1,.5-.5h0a.5.5,0,0,1,.5.5h0a.5.5,0,0,1-.5.5h0A.51.51,0,0,1,130.5,180.07Z" style="fill:#e0e0e0"></path><path d="M131,202.61a.43.43,0,0,1-.19,0,.53.53,0,0,1-.27-.27.41.41,0,0,1,0-.19.43.43,0,0,1,0-.19.36.36,0,0,1,.11-.16.46.46,0,0,1,.16-.11.5.5,0,0,1,.38,0,.46.46,0,0,1,.16.11.36.36,0,0,1,.11.16.43.43,0,0,1,0,.19.47.47,0,0,1-.15.35.36.36,0,0,1-.16.11A.41.41,0,0,1,131,202.61Z" style="fill:#e0e0e0"></path><path d="M222.17,202.11a.5.5,0,0,1,.49-.5h0a.51.51,0,0,1,.51.5h0a.5.5,0,0,1-.51.5h0A.49.49,0,0,1,222.17,202.11Zm-6.11,0a.5.5,0,0,1,.5-.5h0a.5.5,0,0,1,.49.5h0a.49.49,0,0,1-.49.5h0A.5.5,0,0,1,216.06,202.11Zm-6.11,0a.5.5,0,0,1,.5-.5h0a.51.51,0,0,1,.5.5h0a.5.5,0,0,1-.5.5h0A.5.5,0,0,1,210,202.11Zm-6.12,0a.51.51,0,0,1,.5-.5h0a.5.5,0,0,1,.5.5h0a.5.5,0,0,1-.5.5h0A.5.5,0,0,1,203.83,202.11Zm-6.11,0a.51.51,0,0,1,.5-.5h0a.5.5,0,0,1,.5.5h0a.5.5,0,0,1-.5.5h0A.5.5,0,0,1,197.72,202.11Zm-6.11,0a.5.5,0,0,1,.5-.5h0a.5.5,0,0,1,.5.5h0a.5.5,0,0,1-.5.5h0A.5.5,0,0,1,191.61,202.11Zm-6.11,0a.5.5,0,0,1,.5-.5h0a.5.5,0,0,1,.5.5h0a.5.5,0,0,1-.5.5h0A.5.5,0,0,1,185.5,202.11Zm-6.11,0a.5.5,0,0,1,.5-.5h0a.51.51,0,0,1,.5.5h0a.5.5,0,0,1-.5.5h0A.5.5,0,0,1,179.39,202.11Zm-6.11,0a.5.5,0,0,1,.5-.5h0a.51.51,0,0,1,.5.5h0a.5.5,0,0,1-.5.5h0A.5.5,0,0,1,173.28,202.11Zm-6.11,0a.5.5,0,0,1,.5-.5h0a.51.51,0,0,1,.5.5h0a.5.5,0,0,1-.5.5h0A.5.5,0,0,1,167.17,202.11Zm-6.12,0a.51.51,0,0,1,.5-.5h0a.51.51,0,0,1,.51.5h0a.5.5,0,0,1-.51.5h0A.5.5,0,0,1,161.05,202.11Zm-6.1,0a.5.5,0,0,1,.5-.5h0a.5.5,0,0,1,.49.5h0a.49.49,0,0,1-.49.5h0A.5.5,0,0,1,155,202.11Zm-6.12,0a.51.51,0,0,1,.5-.5h0a.5.5,0,0,1,.5.5h0a.5.5,0,0,1-.5.5h0A.5.5,0,0,1,148.83,202.11Zm-6.11,0a.51.51,0,0,1,.5-.5h0a.5.5,0,0,1,.5.5h0a.5.5,0,0,1-.5.5h0A.5.5,0,0,1,142.72,202.11Zm-6.11,0a.51.51,0,0,1,.5-.5h0a.5.5,0,0,1,.5.5h0a.5.5,0,0,1-.5.5h0A.5.5,0,0,1,136.61,202.11Z" style="fill:#e0e0e0"></path><path d="M228.78,202.61a.41.41,0,0,1-.19,0,.45.45,0,0,1-.17-.11.44.44,0,0,1-.1-.16.41.41,0,0,1,0-.19.55.55,0,0,1,.14-.35.45.45,0,0,1,.17-.11.5.5,0,0,1,.38,0,.36.36,0,0,1,.16.11.5.5,0,0,1,.15.35.51.51,0,0,1-.15.35.36.36,0,0,1-.16.11A.43.43,0,0,1,228.78,202.61Z" style="fill:#e0e0e0"></path><path d="M228.28,196.16a.5.5,0,0,1,.5-.5h0a.5.5,0,0,1,.5.5h0a.51.51,0,0,1-.5.5h0A.5.5,0,0,1,228.28,196.16Zm0-6a.5.5,0,0,1,.5-.5h0a.5.5,0,0,1,.5.5h0a.5.5,0,0,1-.5.5h0A.5.5,0,0,1,228.28,190.2Zm0-6a.5.5,0,0,1,.5-.5h0a.51.51,0,0,1,.5.5h0a.5.5,0,0,1-.5.5h0A.5.5,0,0,1,228.28,184.24Zm0-6a.5.5,0,0,1,.5-.5h0a.5.5,0,0,1,.5.5h0a.5.5,0,0,1-.5.5h0A.5.5,0,0,1,228.28,178.29Zm0-6a.5.5,0,0,1,.5-.5h0a.51.51,0,0,1,.5.5h0a.5.5,0,0,1-.5.5h0A.5.5,0,0,1,228.28,172.33Zm0-6a.5.5,0,0,1,.5-.5h0a.5.5,0,0,1,.5.5h0a.51.51,0,0,1-.5.5h0A.5.5,0,0,1,228.28,166.38Zm0-6a.5.5,0,0,1,.5-.5h0a.51.51,0,0,1,.5.5h0a.5.5,0,0,1-.5.5h0A.5.5,0,0,1,228.28,160.42Zm0-5.95a.5.5,0,0,1,.5-.5h0a.5.5,0,0,1,.5.5h0a.51.51,0,0,1-.5.5h0A.5.5,0,0,1,228.28,154.47Zm0-6a.5.5,0,0,1,.5-.5h0a.5.5,0,0,1,.5.5h0a.5.5,0,0,1-.5.5h0A.5.5,0,0,1,228.28,148.51Z" style="fill:#e0e0e0"></path><path d="M228.78,143.06a.58.58,0,0,1-.19,0l-.17-.11a.54.54,0,0,1-.1-.16.43.43,0,0,1,0-.19.48.48,0,0,1,0-.2.54.54,0,0,1,.1-.16l.17-.11a.5.5,0,0,1,.38,0,.64.64,0,0,1,.16.11.55.55,0,0,1,.15.36.51.51,0,0,1-.5.5Z" style="fill:#e0e0e0"></path><path d="M366,142.56a.5.5,0,0,1,.5-.51h0a.51.51,0,0,1,.5.51h0a.51.51,0,0,1-.5.5h0A.5.5,0,0,1,366,142.56Zm-6,0a.5.5,0,0,1,.5-.51h0a.5.5,0,0,1,.5.51h0a.5.5,0,0,1-.5.5h0A.5.5,0,0,1,360,142.56Zm-6,0a.51.51,0,0,1,.5-.51h0a.5.5,0,0,1,.5.51h0a.5.5,0,0,1-.5.5h0A.51.51,0,0,1,354,142.56Zm-6,0a.5.5,0,0,1,.5-.51h0a.5.5,0,0,1,.49.51h0a.5.5,0,0,1-.49.5h0A.5.5,0,0,1,348,142.56Zm-6,0a.5.5,0,0,1,.5-.51h0a.51.51,0,0,1,.5.51h0a.51.51,0,0,1-.5.5h0A.5.5,0,0,1,342,142.56Zm-6,0a.5.5,0,0,1,.5-.51h0a.5.5,0,0,1,.5.51h0a.5.5,0,0,1-.5.5h0A.5.5,0,0,1,336.05,142.56Zm-6,0a.51.51,0,0,1,.5-.51h0a.5.5,0,0,1,.5.51h0a.5.5,0,0,1-.5.5h0A.51.51,0,0,1,330.06,142.56Zm-6,0a.5.5,0,0,1,.5-.51h0a.51.51,0,0,1,.5.51h0a.51.51,0,0,1-.5.5h0A.5.5,0,0,1,324.08,142.56Zm-6,0a.5.5,0,0,1,.5-.51h0a.51.51,0,0,1,.5.51h0a.51.51,0,0,1-.5.5h0A.5.5,0,0,1,318.09,142.56Zm-6,0a.51.51,0,0,1,.5-.51h0a.5.5,0,0,1,.5.51h0a.5.5,0,0,1-.5.5h0A.51.51,0,0,1,312.1,142.56Zm-6,0a.51.51,0,0,1,.51-.51h0a.5.5,0,0,1,.49.51h0a.5.5,0,0,1-.49.5h0A.51.51,0,0,1,306.11,142.56Zm-6,0a.5.5,0,0,1,.5-.51h0a.51.51,0,0,1,.5.51h0a.51.51,0,0,1-.5.5h0A.5.5,0,0,1,300.13,142.56Zm-6,0a.5.5,0,0,1,.5-.51h0a.5.5,0,0,1,.5.51h0a.5.5,0,0,1-.5.5h0A.5.5,0,0,1,294.14,142.56Zm-6,0a.51.51,0,0,1,.5-.51h0a.5.5,0,0,1,.5.51h0a.5.5,0,0,1-.5.5h0A.51.51,0,0,1,288.15,142.56Zm-6,0a.51.51,0,0,1,.5-.51h0a.51.51,0,0,1,.51.51h0a.51.51,0,0,1-.51.5h0A.51.51,0,0,1,282.16,142.56Zm-6,0a.5.5,0,0,1,.5-.51h0a.51.51,0,0,1,.5.51h0a.51.51,0,0,1-.5.5h0A.5.5,0,0,1,276.18,142.56Zm-6,0a.5.5,0,0,1,.5-.51h0a.51.51,0,0,1,.5.51h0a.51.51,0,0,1-.5.5h0A.5.5,0,0,1,270.19,142.56Zm-6,0a.51.51,0,0,1,.5-.51h0a.5.5,0,0,1,.5.51h0a.5.5,0,0,1-.5.5h0A.51.51,0,0,1,264.2,142.56Zm-6,0a.5.5,0,0,1,.5-.51h0a.5.5,0,0,1,.49.51h0a.5.5,0,0,1-.49.5h0A.5.5,0,0,1,258.22,142.56Zm-6,0a.5.5,0,0,1,.5-.51h0a.51.51,0,0,1,.5.51h0a.51.51,0,0,1-.5.5h0A.5.5,0,0,1,252.23,142.56Zm-6,0a.5.5,0,0,1,.5-.51h0a.5.5,0,0,1,.5.51h0a.5.5,0,0,1-.5.5h0A.5.5,0,0,1,246.24,142.56Zm-6,0a.51.51,0,0,1,.5-.51h0a.5.5,0,0,1,.5.51h0a.5.5,0,0,1-.5.5h0A.51.51,0,0,1,240.25,142.56Zm-6,0a.5.5,0,0,1,.5-.51h0a.51.51,0,0,1,.5.51h0a.51.51,0,0,1-.5.5h0A.5.5,0,0,1,234.27,142.56Z" style="fill:#e0e0e0"></path><path d="M372.48,143.06a.5.5,0,0,1-.5-.5.54.54,0,0,1,.14-.36.91.91,0,0,1,.16-.11.52.52,0,0,1,.55.11.71.71,0,0,1,.11.17.58.58,0,0,1,0,.19.5.5,0,0,1-.14.35A.51.51,0,0,1,372.48,143.06Z" style="fill:#e0e0e0"></path><path d="M372,136.78a.5.5,0,0,1,.5-.49h0a.5.5,0,0,1,.51.49h0a.5.5,0,0,1-.51.5h0A.5.5,0,0,1,372,136.78Zm0-5.77a.51.51,0,0,1,.5-.5h0a.51.51,0,0,1,.51.5h0a.51.51,0,0,1-.51.51h0A.51.51,0,0,1,372,131Zm0-5.77a.51.51,0,0,1,.5-.5h0a.51.51,0,0,1,.51.5h0a.5.5,0,0,1-.51.5h0A.5.5,0,0,1,372,125.24Zm0-5.77a.51.51,0,0,1,.5-.5h0a.51.51,0,0,1,.51.5h0a.5.5,0,0,1-.51.5h0A.5.5,0,0,1,372,119.47Zm0-5.77a.51.51,0,0,1,.5-.5h0a.51.51,0,0,1,.51.5h0a.5.5,0,0,1-.51.5h0A.5.5,0,0,1,372,113.7Zm0-5.77a.51.51,0,0,1,.5-.5h0a.51.51,0,0,1,.51.5h0a.5.5,0,0,1-.51.5h0A.5.5,0,0,1,372,107.93Z" style="fill:#e0e0e0"></path><path d="M372.48,102.66a.49.49,0,0,1-.36-.15.5.5,0,0,1-.14-.35.58.58,0,0,1,0-.19.64.64,0,0,1,.11-.16.51.51,0,0,1,.71,0,.5.5,0,0,1,.14.35.58.58,0,0,1,0,.19.64.64,0,0,1-.11.16.42.42,0,0,1-.16.11A.43.43,0,0,1,372.48,102.66Z" style="fill:#e0e0e0"></path><path d="M165.8,290.83a.51.51,0,0,1-.36-.14.5.5,0,0,1-.11-.17.58.58,0,0,1,0-.19.51.51,0,0,1,.15-.35.53.53,0,0,1,.55-.11.57.57,0,0,1,.16.11.5.5,0,0,1,.14.35.58.58,0,0,1,0,.19.71.71,0,0,1-.11.17.54.54,0,0,1-.16.1A.43.43,0,0,1,165.8,290.83Z" style="fill:#e0e0e0"></path><path d="M165.3,314.87a.5.5,0,0,1,.5-.5h0a.49.49,0,0,1,.49.5h0a.5.5,0,0,1-.49.5h0A.5.5,0,0,1,165.3,314.87Zm0-6.14a.5.5,0,0,1,.5-.5h0a.5.5,0,0,1,.49.5h0a.49.49,0,0,1-.49.5h0A.5.5,0,0,1,165.3,308.73Zm0-6.13a.5.5,0,0,1,.5-.5h0a.5.5,0,0,1,.49.5h0a.5.5,0,0,1-.49.5h0A.5.5,0,0,1,165.3,302.6Zm0-6.13a.5.5,0,0,1,.5-.5h0a.49.49,0,0,1,.49.5h0a.5.5,0,0,1-.49.5h0A.5.5,0,0,1,165.3,296.47Z" style="fill:#e0e0e0"></path><path d="M165.8,321.5a.48.48,0,0,1-.36-.15.46.46,0,0,1-.11-.16.58.58,0,0,1,0-.19.65.65,0,0,1,0-.19.46.46,0,0,1,.11-.16.51.51,0,0,1,.55-.11.42.42,0,0,1,.16.11.64.64,0,0,1,.11.16.63.63,0,0,1,0,.19.58.58,0,0,1,0,.19.64.64,0,0,1-.11.16.42.42,0,0,1-.16.11A.43.43,0,0,1,165.8,321.5Z" style="fill:#e0e0e0"></path><path d="M222.55,321a.5.5,0,0,1,.5-.5h0a.5.5,0,0,1,.5.5h0a.5.5,0,0,1-.5.5h0A.5.5,0,0,1,222.55,321Zm-5.72,0a.5.5,0,0,1,.5-.5h0a.5.5,0,0,1,.5.5h0a.5.5,0,0,1-.5.5h0A.5.5,0,0,1,216.83,321Zm-5.73,0a.5.5,0,0,1,.5-.5h0a.5.5,0,0,1,.5.5h0a.5.5,0,0,1-.5.5h0A.5.5,0,0,1,211.1,321Zm-5.72,0a.5.5,0,0,1,.5-.5h0a.5.5,0,0,1,.5.5h0a.5.5,0,0,1-.5.5h0A.5.5,0,0,1,205.38,321Zm-5.73,0a.5.5,0,0,1,.5-.5h0a.5.5,0,0,1,.5.5h0a.5.5,0,0,1-.5.5h0A.5.5,0,0,1,199.65,321Zm-5.73,0a.5.5,0,0,1,.51-.5h0a.49.49,0,0,1,.49.5h0a.49.49,0,0,1-.49.5h0A.5.5,0,0,1,193.92,321Zm-5.72,0a.5.5,0,0,1,.5-.5h0a.5.5,0,0,1,.5.5h0a.5.5,0,0,1-.5.5h0A.5.5,0,0,1,188.2,321Zm-5.73,0a.5.5,0,0,1,.5-.5h0a.5.5,0,0,1,.5.5h0a.5.5,0,0,1-.5.5h0A.5.5,0,0,1,182.47,321Zm-5.72,0a.5.5,0,0,1,.5-.5h0a.5.5,0,0,1,.5.5h0a.5.5,0,0,1-.5.5h0A.5.5,0,0,1,176.75,321ZM171,321a.5.5,0,0,1,.5-.5h0a.5.5,0,0,1,.5.5h0a.5.5,0,0,1-.5.5h0A.5.5,0,0,1,171,321Z" style="fill:#e0e0e0"></path><path d="M228.78,321.5a.41.41,0,0,1-.19,0,.45.45,0,0,1-.17-.11.44.44,0,0,1-.1-.16.41.41,0,0,1,0-.19.5.5,0,0,1,.14-.35.45.45,0,0,1,.17-.11.5.5,0,0,1,.38,0,.36.36,0,0,1,.16.11.51.51,0,0,1,.15.35.43.43,0,0,1,0,.19.46.46,0,0,1-.11.16.36.36,0,0,1-.16.11A.43.43,0,0,1,228.78,321.5Z" style="fill:#e0e0e0"></path><path d="M228.28,315.18a.5.5,0,0,1,.5-.5h0a.5.5,0,0,1,.5.5h0a.51.51,0,0,1-.5.5h0A.5.5,0,0,1,228.28,315.18Zm0-5.82a.5.5,0,0,1,.5-.51h0a.51.51,0,0,1,.5.51h0a.51.51,0,0,1-.5.5h0A.5.5,0,0,1,228.28,309.36Zm0-5.83a.5.5,0,0,1,.5-.5h0a.51.51,0,0,1,.5.5h0a.5.5,0,0,1-.5.5h0A.5.5,0,0,1,228.28,303.53Zm0-5.82a.5.5,0,0,1,.5-.5h0a.51.51,0,0,1,.5.5h0a.5.5,0,0,1-.5.5h0A.5.5,0,0,1,228.28,297.71Zm0-5.82a.5.5,0,0,1,.5-.5h0a.5.5,0,0,1,.5.5h0a.51.51,0,0,1-.5.5h0A.5.5,0,0,1,228.28,291.89Zm0-5.82a.5.5,0,0,1,.5-.5h0a.5.5,0,0,1,.5.5h0a.51.51,0,0,1-.5.5h0A.5.5,0,0,1,228.28,286.07Zm0-5.82a.5.5,0,0,1,.5-.5h0a.5.5,0,0,1,.5.5h0a.51.51,0,0,1-.5.5h0A.5.5,0,0,1,228.28,280.25Zm0-5.83a.5.5,0,0,1,.5-.5h0a.51.51,0,0,1,.5.5h0a.5.5,0,0,1-.5.5h0A.5.5,0,0,1,228.28,274.42Zm0-5.82a.5.5,0,0,1,.5-.5h0a.5.5,0,0,1,.5.5h0a.5.5,0,0,1-.5.5h0A.5.5,0,0,1,228.28,268.6Zm0-5.82a.5.5,0,0,1,.5-.5h0a.5.5,0,0,1,.5.5h0a.51.51,0,0,1-.5.5h0A.5.5,0,0,1,228.28,262.78Zm0-5.82a.5.5,0,0,1,.5-.5h0a.5.5,0,0,1,.5.5h0a.51.51,0,0,1-.5.5h0A.5.5,0,0,1,228.28,257Zm0-5.83a.5.5,0,0,1,.5-.5h0a.51.51,0,0,1,.5.5h0a.5.5,0,0,1-.5.5h0A.5.5,0,0,1,228.28,251.13Zm0-5.82a.5.5,0,0,1,.5-.5h0a.5.5,0,0,1,.5.5h0a.5.5,0,0,1-.5.5h0A.5.5,0,0,1,228.28,245.31Zm0-5.82a.5.5,0,0,1,.5-.5h0a.5.5,0,0,1,.5.5h0a.5.5,0,0,1-.5.5h0A.5.5,0,0,1,228.28,239.49Z" style="fill:#e0e0e0"></path><path d="M228.78,234.17a.58.58,0,0,1-.19,0,.62.62,0,0,1-.17-.11.54.54,0,0,1-.1-.16.43.43,0,0,1,0-.19.52.52,0,0,1,.14-.36.59.59,0,0,1,.17-.1.5.5,0,0,1,.38,0,.44.44,0,0,1,.16.1.55.55,0,0,1,.15.36.43.43,0,0,1,0,.19.57.57,0,0,1-.11.16.5.5,0,0,1-.35.15Z" style="fill:#e0e0e0"></path><path d="M306.91,233.67a.5.5,0,0,1,.5-.5h0a.5.5,0,0,1,.5.5h0a.5.5,0,0,1-.5.5h0A.51.51,0,0,1,306.91,233.67Zm-6.05,0a.5.5,0,0,1,.5-.5h0a.5.5,0,0,1,.51.5h0a.51.51,0,0,1-.51.5h0A.51.51,0,0,1,300.86,233.67Zm-6.05,0a.5.5,0,0,1,.5-.5h0a.5.5,0,0,1,.5.5h0a.5.5,0,0,1-.5.5h0A.51.51,0,0,1,294.81,233.67Zm-6,0a.49.49,0,0,1,.49-.5h0a.5.5,0,0,1,.5.5h0a.5.5,0,0,1-.5.5h0A.5.5,0,0,1,288.77,233.67Zm-6,0a.5.5,0,0,1,.5-.5h0a.5.5,0,0,1,.5.5h0a.51.51,0,0,1-.5.5h0A.5.5,0,0,1,282.72,233.67Zm-6.05,0a.5.5,0,0,1,.5-.5h0a.5.5,0,0,1,.5.5h0a.51.51,0,0,1-.5.5h0A.5.5,0,0,1,276.67,233.67Zm-6.05,0a.5.5,0,0,1,.5-.5h0a.5.5,0,0,1,.5.5h0a.51.51,0,0,1-.5.5h0A.5.5,0,0,1,270.62,233.67Zm-6.05,0a.5.5,0,0,1,.5-.5h0a.5.5,0,0,1,.5.5h0a.5.5,0,0,1-.5.5h0A.51.51,0,0,1,264.57,233.67Zm-6.05,0a.5.5,0,0,1,.5-.5h0a.5.5,0,0,1,.5.5h0a.5.5,0,0,1-.5.5h0A.5.5,0,0,1,258.52,233.67Zm-6,0a.5.5,0,0,1,.5-.5h0a.5.5,0,0,1,.5.5h0a.5.5,0,0,1-.5.5h0A.51.51,0,0,1,252.47,233.67Zm-6.05,0a.5.5,0,0,1,.5-.5h0a.5.5,0,0,1,.5.5h0a.5.5,0,0,1-.5.5h0A.51.51,0,0,1,246.42,233.67Zm-6,0a.5.5,0,0,1,.5-.5h0a.5.5,0,0,1,.5.5h0a.51.51,0,0,1-.5.5h0A.5.5,0,0,1,240.38,233.67Zm-6,0a.5.5,0,0,1,.5-.5h0a.5.5,0,0,1,.5.5h0a.51.51,0,0,1-.5.5h0A.5.5,0,0,1,234.33,233.67Z" style="fill:#e0e0e0"></path><path d="M313.46,234.17a.51.51,0,0,1-.35-.15.57.57,0,0,1-.11-.16.65.65,0,0,1,0-.19.58.58,0,0,1,0-.19.5.5,0,0,1,.11-.17.44.44,0,0,1,.16-.1.42.42,0,0,1,.38,0,.59.59,0,0,1,.17.1.48.48,0,0,1,.1.17.41.41,0,0,1,0,.19.5.5,0,0,1-.14.35A.55.55,0,0,1,313.46,234.17Z" style="fill:#e0e0e0"></path><path d="M313,227.36a.5.5,0,0,1,.5-.5h0a.5.5,0,0,1,.5.5h0a.5.5,0,0,1-.5.5h0A.51.51,0,0,1,313,227.36Zm0-6.31a.5.5,0,0,1,.5-.5h0a.5.5,0,0,1,.5.5h0a.49.49,0,0,1-.5.49h0A.5.5,0,0,1,313,221.05Zm0-6.32a.51.51,0,0,1,.5-.5h0a.5.5,0,0,1,.5.5h0a.5.5,0,0,1-.5.5h0A.5.5,0,0,1,313,214.73Zm0-6.31a.51.51,0,0,1,.5-.5h0a.5.5,0,0,1,.5.5h0a.5.5,0,0,1-.5.5h0A.5.5,0,0,1,313,208.42Z" style="fill:#e0e0e0"></path><path d="M313.46,202.61a.5.5,0,0,1-.35-.14.62.62,0,0,1-.11-.17.58.58,0,0,1,0-.19.65.65,0,0,1,0-.19.53.53,0,0,1,.27-.27.52.52,0,0,1,.55.11.55.55,0,0,1,.14.35.48.48,0,0,1-.5.5Z" style="fill:#e0e0e0"></path><path d="M372.48,313.17a.51.51,0,0,1-.36-.15.5.5,0,0,1-.14-.35.54.54,0,0,1,.14-.36.52.52,0,0,1,.55-.1.54.54,0,0,1,.16.1.71.71,0,0,1,.11.17.58.58,0,0,1,0,.19.5.5,0,0,1-.14.35A.51.51,0,0,1,372.48,313.17Z" style="fill:#e0e0e0"></path><path d="M372,347.24a.5.5,0,0,1,.5-.5h0a.5.5,0,0,1,.51.5h0a.5.5,0,0,1-.51.5h0A.5.5,0,0,1,372,347.24Zm0-5.76a.5.5,0,0,1,.5-.5h0a.5.5,0,0,1,.51.5h0a.51.51,0,0,1-.51.5h0A.51.51,0,0,1,372,341.48Zm0-5.77a.51.51,0,0,1,.5-.5h0a.51.51,0,0,1,.51.5h0a.51.51,0,0,1-.51.51h0A.51.51,0,0,1,372,335.71Zm0-5.76a.51.51,0,0,1,.5-.5h0a.51.51,0,0,1,.51.5h0a.5.5,0,0,1-.51.5h0A.5.5,0,0,1,372,330Zm0-5.76a.5.5,0,0,1,.5-.5h0a.5.5,0,0,1,.51.5h0a.5.5,0,0,1-.51.5h0A.5.5,0,0,1,372,324.19Zm0-5.76a.5.5,0,0,1,.5-.5h0a.5.5,0,0,1,.51.5h0a.51.51,0,0,1-.51.5h0A.51.51,0,0,1,372,318.43Z" style="fill:#e0e0e0"></path><path d="M372.48,353.5a.49.49,0,0,1-.36-.15A.5.5,0,0,1,372,353a.58.58,0,0,1,0-.19.64.64,0,0,1,.11-.16.51.51,0,0,1,.71,0,.5.5,0,0,1,.14.35.63.63,0,0,1,0,.19.64.64,0,0,1-.11.16.42.42,0,0,1-.16.11A.43.43,0,0,1,372.48,353.5Z" style="fill:#e0e0e0"></path><path d="M366,353a.5.5,0,0,1,.5-.5h0a.5.5,0,0,1,.5.5h0a.5.5,0,0,1-.5.5h0A.5.5,0,0,1,366,353Zm-6,0a.5.5,0,0,1,.5-.5h0a.5.5,0,0,1,.5.5h0a.5.5,0,0,1-.5.5h0A.5.5,0,0,1,360,353Zm-6,0a.5.5,0,0,1,.5-.5h0a.5.5,0,0,1,.5.5h0a.5.5,0,0,1-.5.5h0A.5.5,0,0,1,354,353Zm-6,0a.5.5,0,0,1,.5-.5h0a.5.5,0,0,1,.5.5h0a.5.5,0,0,1-.5.5h0A.5.5,0,0,1,348,353Zm-6,0a.5.5,0,0,1,.5-.5h0a.5.5,0,0,1,.5.5h0a.5.5,0,0,1-.5.5h0A.5.5,0,0,1,342,353Zm-6,0a.5.5,0,0,1,.5-.5h0a.5.5,0,0,1,.5.5h0a.5.5,0,0,1-.5.5h0A.5.5,0,0,1,336.05,353Zm-6,0a.5.5,0,0,1,.5-.5h0a.5.5,0,0,1,.5.5h0a.5.5,0,0,1-.5.5h0A.5.5,0,0,1,330.06,353Zm-6,0a.5.5,0,0,1,.51-.5h0a.5.5,0,0,1,.5.5h0a.5.5,0,0,1-.5.5h0A.5.5,0,0,1,324.07,353Zm-6,0a.5.5,0,0,1,.5-.5h0a.5.5,0,0,1,.5.5h0a.5.5,0,0,1-.5.5h0A.5.5,0,0,1,318.09,353Zm-6,0a.5.5,0,0,1,.5-.5h0a.5.5,0,0,1,.5.5h0a.5.5,0,0,1-.5.5h0A.5.5,0,0,1,312.1,353Zm-6,0a.5.5,0,0,1,.5-.5h0a.5.5,0,0,1,.5.5h0a.5.5,0,0,1-.5.5h0A.5.5,0,0,1,306.11,353Zm-6,0a.5.5,0,0,1,.5-.5h0a.5.5,0,0,1,.51.5h0a.5.5,0,0,1-.51.5h0A.5.5,0,0,1,300.12,353Zm-6,0a.5.5,0,0,1,.5-.5h0a.5.5,0,0,1,.5.5h0a.5.5,0,0,1-.5.5h0A.5.5,0,0,1,294.14,353Zm-6,0a.5.5,0,0,1,.5-.5h0a.5.5,0,0,1,.5.5h0a.5.5,0,0,1-.5.5h0A.5.5,0,0,1,288.15,353Zm-6,0a.5.5,0,0,1,.5-.5h0a.5.5,0,0,1,.5.5h0a.5.5,0,0,1-.5.5h0A.5.5,0,0,1,282.16,353Zm-6,0a.5.5,0,0,1,.5-.5h0a.5.5,0,0,1,.5.5h0a.5.5,0,0,1-.5.5h0A.5.5,0,0,1,276.18,353Zm-6,0a.5.5,0,0,1,.5-.5h0a.5.5,0,0,1,.5.5h0a.5.5,0,0,1-.5.5h0A.5.5,0,0,1,270.19,353Zm-6,0a.5.5,0,0,1,.5-.5h0a.5.5,0,0,1,.5.5h0a.5.5,0,0,1-.5.5h0A.5.5,0,0,1,264.2,353Zm-6,0a.49.49,0,0,1,.49-.5h0a.5.5,0,0,1,.5.5h0a.5.5,0,0,1-.5.5h0A.49.49,0,0,1,258.22,353Zm-6,0a.5.5,0,0,1,.5-.5h0a.5.5,0,0,1,.5.5h0a.5.5,0,0,1-.5.5h0A.5.5,0,0,1,252.23,353Zm-6,0a.5.5,0,0,1,.5-.5h0a.5.5,0,0,1,.5.5h0a.5.5,0,0,1-.5.5h0A.5.5,0,0,1,246.24,353Zm-6,0a.5.5,0,0,1,.5-.5h0a.5.5,0,0,1,.5.5h0a.5.5,0,0,1-.5.5h0A.5.5,0,0,1,240.25,353Zm-6,0a.5.5,0,0,1,.5-.5h0a.5.5,0,0,1,.51.5h0a.5.5,0,0,1-.51.5h0A.5.5,0,0,1,234.26,353Z" style="fill:#e0e0e0"></path><path d="M228.78,353.5a.41.41,0,0,1-.19,0,.45.45,0,0,1-.17-.11.52.52,0,0,1,0-.7.45.45,0,0,1,.17-.11.5.5,0,0,1,.38,0,.36.36,0,0,1,.16.11.49.49,0,0,1,0,.7.36.36,0,0,1-.16.11A.43.43,0,0,1,228.78,353.5Z" style="fill:#e0e0e0"></path><path d="M228.28,346.6a.5.5,0,0,1,.5-.5h0a.5.5,0,0,1,.5.5h0a.5.5,0,0,1-.5.5h0A.5.5,0,0,1,228.28,346.6Zm0-6.4a.5.5,0,0,1,.5-.5h0a.5.5,0,0,1,.5.5h0a.5.5,0,0,1-.5.5h0A.5.5,0,0,1,228.28,340.2Zm0-6.4a.5.5,0,0,1,.5-.5h0a.5.5,0,0,1,.5.5h0a.5.5,0,0,1-.5.5h0A.5.5,0,0,1,228.28,333.8Zm0-6.4a.5.5,0,0,1,.5-.5h0a.5.5,0,0,1,.5.5h0a.5.5,0,0,1-.5.5h0A.5.5,0,0,1,228.28,327.4Z" style="fill:#e0e0e0"></path><path d="M228.78,321.5a.41.41,0,0,1-.19,0,.45.45,0,0,1-.17-.11.44.44,0,0,1-.1-.16.41.41,0,0,1,0-.19.5.5,0,0,1,.14-.35.45.45,0,0,1,.17-.11.5.5,0,0,1,.38,0,.36.36,0,0,1,.16.11.51.51,0,0,1,.15.35.43.43,0,0,1,0,.19.46.46,0,0,1-.11.16.36.36,0,0,1-.16.11A.43.43,0,0,1,228.78,321.5Z" style="fill:#e0e0e0"></path><path d="M228.78,202.61a.41.41,0,0,1-.19,0,.45.45,0,0,1-.17-.11.44.44,0,0,1-.1-.16.41.41,0,0,1,0-.19.55.55,0,0,1,.14-.35.45.45,0,0,1,.17-.11.5.5,0,0,1,.38,0,.36.36,0,0,1,.16.11.5.5,0,0,1,.15.35.51.51,0,0,1-.15.35.36.36,0,0,1-.16.11A.43.43,0,0,1,228.78,202.61Z" style="fill:#e0e0e0"></path><path d="M228.28,227.36a.5.5,0,0,1,.5-.51h0a.51.51,0,0,1,.5.51h0a.51.51,0,0,1-.5.5h0A.5.5,0,0,1,228.28,227.36Zm0-6.31a.5.5,0,0,1,.5-.5h0a.5.5,0,0,1,.5.5h0a.51.51,0,0,1-.5.5h0A.5.5,0,0,1,228.28,221.05Zm0-6.32a.5.5,0,0,1,.5-.5h0a.51.51,0,0,1,.5.5h0a.5.5,0,0,1-.5.5h0A.5.5,0,0,1,228.28,214.73Zm0-6.31a.5.5,0,0,1,.5-.5h0a.51.51,0,0,1,.5.5h0a.5.5,0,0,1-.5.5h0A.5.5,0,0,1,228.28,208.42Z" style="fill:#e0e0e0"></path><path d="M228.78,234.17a.58.58,0,0,1-.19,0,.62.62,0,0,1-.17-.11.54.54,0,0,1-.1-.16.43.43,0,0,1,0-.19.52.52,0,0,1,.14-.36.59.59,0,0,1,.17-.1.5.5,0,0,1,.38,0,.44.44,0,0,1,.16.1.55.55,0,0,1,.15.36.43.43,0,0,1,0,.19.57.57,0,0,1-.11.16.5.5,0,0,1-.35.15Z" style="fill:#e0e0e0"></path></g><g id="freepik--Shadow--inject-130"><ellipse id="freepik--path--inject-130" cx="250" cy="416.24" rx="193.89" ry="11.32" style="fill:#f5f5f5"></ellipse></g><g id="freepik--Monitors--inject-130"><path d="M123.3,353.48l2-34.24a3.89,3.89,0,0,1,3.83-3.62h55.57a3.38,3.38,0,0,1,3.41,3.62l-2,34.24a3.89,3.89,0,0,1-3.83,3.63H126.72A3.4,3.4,0,0,1,123.3,353.48Z" style="fill:#A90023"></path><path d="M120.49,353.48l2-34.24a3.89,3.89,0,0,1,3.84-3.62h57.79a3.39,3.39,0,0,1,3.42,3.62l-2,34.24a3.89,3.89,0,0,1-3.83,3.63H123.91A3.4,3.4,0,0,1,120.49,353.48Z" style="fill:#fff"></path><path d="M120.49,353.48l2-34.24a3.89,3.89,0,0,1,3.84-3.62h57.79a3.39,3.39,0,0,1,3.42,3.62l-2,34.24a3.89,3.89,0,0,1-3.83,3.63H123.91A3.4,3.4,0,0,1,120.49,353.48Z" style="fill:#A90023;opacity:0.30000000000000004"></path><rect x="154.44" y="350.17" width="7.7" height="28.15" rx="3.62" transform="translate(522.53 205.95) rotate(90)" style="fill:#A90023"></rect><g style="opacity:0.6000000000000001"><rect x="154.44" y="350.17" width="7.7" height="28.15" rx="3.62" transform="translate(522.53 205.95) rotate(90)" style="fill:#fff"></rect></g><rect x="146.97" y="349.05" width="7.7" height="30.38" rx="3.62" transform="translate(515.06 213.42) rotate(90)" style="fill:#fff"></rect><rect x="146.97" y="349.05" width="7.7" height="30.38" rx="3.62" transform="translate(515.06 213.42) rotate(90)" style="fill:#A90023;opacity:0.30000000000000004"></rect><path d="M182.52,355.35H123.3a1.5,1.5,0,0,1-1.51-1.6l2-34.78a1.72,1.72,0,0,1,1.69-1.6h59.22a1.5,1.5,0,0,1,1.51,1.6l-2,34.78A1.72,1.72,0,0,1,182.52,355.35Z" style="fill:#fff;opacity:0.9"></path><polygon points="140.37 355.35 128.59 355.35 139.36 317.37 151.14 317.37 140.37 355.35" style="fill:#A90023;opacity:0.1"></polygon><polygon points="150.01 355.35 141.78 355.35 152.55 317.37 160.78 317.37 150.01 355.35" style="fill:#A90023;opacity:0.1"></polygon><polygon points="167.95 355.35 159.72 355.35 170.49 317.37 178.72 317.37 167.95 355.35" style="fill:#A90023;opacity:0.1"></polygon><path d="M219,353.48l2-34.24a3.88,3.88,0,0,1,3.83-3.62h55.56a3.38,3.38,0,0,1,3.42,3.62l-2,34.24a3.9,3.9,0,0,1-3.83,3.63H222.43A3.38,3.38,0,0,1,219,353.48Z" style="fill:#A90023"></path><path d="M216.21,353.48l2-34.24a3.89,3.89,0,0,1,3.83-3.62h57.8a3.38,3.38,0,0,1,3.41,3.62l-2,34.24a3.89,3.89,0,0,1-3.83,3.63H219.63A3.39,3.39,0,0,1,216.21,353.48Z" style="fill:#fff"></path><path d="M216.21,353.48l2-34.24a3.89,3.89,0,0,1,3.83-3.62h57.8a3.38,3.38,0,0,1,3.41,3.62l-2,34.24a3.89,3.89,0,0,1-3.83,3.63H219.63A3.39,3.39,0,0,1,216.21,353.48Z" style="fill:#A90023;opacity:0.30000000000000004"></path><rect x="250.15" y="350.17" width="7.7" height="28.15" rx="3.62" transform="translate(618.24 110.24) rotate(90)" style="fill:#A90023"></rect><g style="opacity:0.6000000000000001"><rect x="250.15" y="350.17" width="7.7" height="28.15" rx="3.62" transform="translate(618.24 110.24) rotate(90)" style="fill:#fff"></rect></g><rect x="242.68" y="349.05" width="7.7" height="30.38" rx="3.62" transform="translate(610.77 117.71) rotate(90)" style="fill:#fff"></rect><rect x="242.68" y="349.05" width="7.7" height="30.38" rx="3.62" transform="translate(610.77 117.71) rotate(90)" style="fill:#A90023;opacity:0.30000000000000004"></rect><path d="M278.23,355.35H219a1.49,1.49,0,0,1-1.5-1.6l2-34.78a1.72,1.72,0,0,1,1.69-1.6h59.22a1.49,1.49,0,0,1,1.5,1.6l-2,34.78A1.71,1.71,0,0,1,278.23,355.35Z" style="fill:#fff;opacity:0.9"></path><polygon points="236.08 355.35 224.31 355.35 235.08 317.37 246.85 317.37 236.08 355.35" style="fill:#A90023;opacity:0.1"></polygon><polygon points="245.72 355.35 237.5 355.35 248.27 317.37 256.5 317.37 245.72 355.35" style="fill:#A90023;opacity:0.1"></polygon><polygon points="263.66 355.35 255.44 355.35 266.21 317.37 274.44 317.37 263.66 355.35" style="fill:#A90023;opacity:0.1"></polygon><path d="M314.73,353.48l2-34.24a3.88,3.88,0,0,1,3.83-3.62h55.56a3.39,3.39,0,0,1,3.42,3.62l-2,34.24a3.9,3.9,0,0,1-3.84,3.63H318.15A3.4,3.4,0,0,1,314.73,353.48Z" style="fill:#A90023"></path><path d="M311.93,353.48l2-34.24a3.88,3.88,0,0,1,3.83-3.62h57.79a3.39,3.39,0,0,1,3.42,3.62l-2,34.24a3.9,3.9,0,0,1-3.83,3.63h-57.8A3.38,3.38,0,0,1,311.93,353.48Z" style="fill:#fff"></path><path d="M311.93,353.48l2-34.24a3.88,3.88,0,0,1,3.83-3.62h57.79a3.39,3.39,0,0,1,3.42,3.62l-2,34.24a3.9,3.9,0,0,1-3.83,3.63h-57.8A3.38,3.38,0,0,1,311.93,353.48Z" style="fill:#A90023;opacity:0.30000000000000004"></path><rect x="345.87" y="350.17" width="7.7" height="28.15" rx="3.62" transform="translate(713.96 14.52) rotate(90)" style="fill:#A90023"></rect><g style="opacity:0.6000000000000001"><rect x="345.87" y="350.17" width="7.7" height="28.15" rx="3.62" transform="translate(713.96 14.52) rotate(90)" style="fill:#fff"></rect></g><rect x="338.4" y="349.05" width="7.7" height="30.38" rx="3.62" transform="translate(706.49 21.99) rotate(90)" style="fill:#fff"></rect><rect x="338.4" y="349.05" width="7.7" height="30.38" rx="3.62" transform="translate(706.49 21.99) rotate(90)" style="fill:#A90023;opacity:0.30000000000000004"></rect><path d="M374,355.35H314.73a1.5,1.5,0,0,1-1.51-1.6l2-34.78a1.71,1.71,0,0,1,1.69-1.6h59.21a1.49,1.49,0,0,1,1.51,1.6l-2,34.78A1.72,1.72,0,0,1,374,355.35Z" style="fill:#fff;opacity:0.9"></path><polygon points="331.8 355.35 320.02 355.35 330.79 317.37 342.57 317.37 331.8 355.35" style="fill:#A90023;opacity:0.1"></polygon><polygon points="341.44 355.35 333.21 355.35 343.99 317.37 352.21 317.37 341.44 355.35" style="fill:#A90023;opacity:0.1"></polygon><polygon points="359.38 355.35 351.15 355.35 361.93 317.37 370.15 317.37 359.38 355.35" style="fill:#A90023;opacity:0.1"></polygon></g><g id="freepik--Connection--inject-130"><path d="M153.68,308.8a.58.58,0,0,1-.19,0l-.17-.11a.54.54,0,0,1-.1-.16.46.46,0,0,1,0-.19.51.51,0,0,1,.14-.36.53.53,0,0,1,.55-.11.46.46,0,0,1,.16.11.42.42,0,0,1,.11.16.45.45,0,0,1,0,.2.46.46,0,0,1,0,.19.42.42,0,0,1-.11.16.5.5,0,0,1-.35.15Z" style="fill:#A90023"></path><path d="M153.18,304.63a.5.5,0,0,1,.5-.5h0a.5.5,0,0,1,.5.5h0a.5.5,0,0,1-.5.5h0A.5.5,0,0,1,153.18,304.63Z" style="fill:#A90023"></path><path d="M153.68,301.47a.51.51,0,0,1-.36-.15.44.44,0,0,1-.1-.16.41.41,0,0,1,0-.19.5.5,0,0,1,.14-.35.51.51,0,0,1,.55-.11.46.46,0,0,1,.16.11.36.36,0,0,1,.11.16.43.43,0,0,1,0,.19.41.41,0,0,1,0,.19.53.53,0,0,1-.27.27A.43.43,0,0,1,153.68,301.47Z" style="fill:#A90023"></path><path d="M245.49,301a.5.5,0,0,1,.49-.5h0a.5.5,0,0,1,.5.5h0a.5.5,0,0,1-.5.5h0A.49.49,0,0,1,245.49,301Zm-4,0a.51.51,0,0,1,.5-.5h0a.5.5,0,0,1,.5.5h0a.5.5,0,0,1-.5.5h0A.5.5,0,0,1,241.47,301Zm-4,0a.5.5,0,0,1,.5-.5h0a.51.51,0,0,1,.5.5h0a.5.5,0,0,1-.5.5h0A.5.5,0,0,1,237.46,301Zm-4,0a.5.5,0,0,1,.5-.5h0a.5.5,0,0,1,.49.5h0a.49.49,0,0,1-.49.5h0A.5.5,0,0,1,233.45,301Zm-4,0a.51.51,0,0,1,.5-.5h0a.5.5,0,0,1,.5.5h0a.5.5,0,0,1-.5.5h0A.5.5,0,0,1,229.43,301Zm-4,0a.5.5,0,0,1,.5-.5h0a.51.51,0,0,1,.5.5h0a.5.5,0,0,1-.5.5h0A.5.5,0,0,1,225.42,301Zm-4,0a.5.5,0,0,1,.5-.5h0a.51.51,0,0,1,.5.5h0a.5.5,0,0,1-.5.5h0A.5.5,0,0,1,221.41,301Zm-4,0a.51.51,0,0,1,.5-.5h0a.5.5,0,0,1,.5.5h0a.5.5,0,0,1-.5.5h0A.5.5,0,0,1,217.39,301Zm-4,0a.5.5,0,0,1,.5-.5h0a.51.51,0,0,1,.5.5h0a.5.5,0,0,1-.5.5h0A.5.5,0,0,1,213.38,301Zm-4,0a.5.5,0,0,1,.5-.5h0a.51.51,0,0,1,.5.5h0a.5.5,0,0,1-.5.5h0A.5.5,0,0,1,209.37,301Zm-4,0a.51.51,0,0,1,.5-.5h0a.5.5,0,0,1,.5.5h0a.5.5,0,0,1-.5.5h0A.5.5,0,0,1,205.35,301Zm-4,0a.5.5,0,0,1,.5-.5h0a.51.51,0,0,1,.5.5h0a.5.5,0,0,1-.5.5h0A.5.5,0,0,1,201.34,301Zm-4,0a.51.51,0,0,1,.51-.5h0a.51.51,0,0,1,.5.5h0a.5.5,0,0,1-.5.5h0A.5.5,0,0,1,197.32,301Zm-4,0a.51.51,0,0,1,.5-.5h0a.5.5,0,0,1,.5.5h0a.5.5,0,0,1-.5.5h0A.5.5,0,0,1,193.31,301Zm-4,0a.5.5,0,0,1,.5-.5h0a.5.5,0,0,1,.5.5h0a.5.5,0,0,1-.5.5h0A.5.5,0,0,1,189.3,301Zm-4,0a.51.51,0,0,1,.5-.5h0a.51.51,0,0,1,.51.5h0a.5.5,0,0,1-.51.5h0A.5.5,0,0,1,185.28,301Zm-4,0a.5.5,0,0,1,.5-.5h0a.5.5,0,0,1,.5.5h0a.5.5,0,0,1-.5.5h0A.5.5,0,0,1,181.27,301Zm-4,0a.5.5,0,0,1,.5-.5h0a.51.51,0,0,1,.5.5h0a.5.5,0,0,1-.5.5h0A.5.5,0,0,1,177.26,301Zm-4,0a.51.51,0,0,1,.5-.5h0a.5.5,0,0,1,.5.5h0a.5.5,0,0,1-.5.5h0A.5.5,0,0,1,173.24,301Zm-4,0a.51.51,0,0,1,.5-.5h0a.5.5,0,0,1,.5.5h0a.5.5,0,0,1-.5.5h0A.5.5,0,0,1,169.23,301Zm-4,0a.5.5,0,0,1,.5-.5h0a.51.51,0,0,1,.5.5h0a.5.5,0,0,1-.5.5h0A.5.5,0,0,1,165.22,301Zm-4,0a.5.5,0,0,1,.49-.5h0a.5.5,0,0,1,.5.5h0a.5.5,0,0,1-.5.5h0A.49.49,0,0,1,161.21,301Zm-4,0a.51.51,0,0,1,.5-.5h0a.5.5,0,0,1,.5.5h0a.5.5,0,0,1-.5.5h0A.5.5,0,0,1,157.19,301Z" style="fill:#A90023"></path><path d="M250,301.47a.41.41,0,0,1-.19,0,.44.44,0,0,1-.16-.1.45.45,0,0,1-.11-.17.41.41,0,0,1,0-.19.43.43,0,0,1,0-.19.42.42,0,0,1,.11-.16.46.46,0,0,1,.16-.11.5.5,0,0,1,.38,0,.46.46,0,0,1,.16.11.47.47,0,0,1,.15.35.41.41,0,0,1,0,.19.45.45,0,0,1-.11.17.44.44,0,0,1-.16.1A.41.41,0,0,1,250,301.47Z" style="fill:#A90023"></path><path d="M250,301.47a.41.41,0,0,1-.19,0,.44.44,0,0,1-.16-.1.45.45,0,0,1-.11-.17.41.41,0,0,1,0-.19.43.43,0,0,1,0-.19.42.42,0,0,1,.11-.16.46.46,0,0,1,.16-.11.5.5,0,0,1,.38,0,.46.46,0,0,1,.16.11.47.47,0,0,1,.15.35.41.41,0,0,1,0,.19.45.45,0,0,1-.11.17.44.44,0,0,1-.16.1A.41.41,0,0,1,250,301.47Z" style="fill:#A90023"></path><path d="M249.5,297.5a.5.5,0,0,1,.5-.5h0a.5.5,0,0,1,.5.5h0a.5.5,0,0,1-.5.5h0A.5.5,0,0,1,249.5,297.5Zm0-3.47a.5.5,0,0,1,.5-.5h0a.5.5,0,0,1,.5.5h0a.5.5,0,0,1-.5.5h0A.5.5,0,0,1,249.5,294Zm0-3.47a.5.5,0,0,1,.5-.5h0a.5.5,0,0,1,.5.5h0a.5.5,0,0,1-.5.5h0A.5.5,0,0,1,249.5,290.56Z" style="fill:#A90023"></path><path d="M250,287.59a.47.47,0,0,1-.35-.15.36.36,0,0,1-.11-.16.43.43,0,0,1,0-.19.41.41,0,0,1,0-.19.39.39,0,0,1,.11-.17.44.44,0,0,1,.16-.1.46.46,0,0,1,.38,0,.44.44,0,0,1,.16.1.45.45,0,0,1,.11.17.41.41,0,0,1,0,.19.43.43,0,0,1,0,.19.36.36,0,0,1-.11.16A.47.47,0,0,1,250,287.59Z" style="fill:#A90023"></path><path d="M250,301.47a.41.41,0,0,1-.19,0,.44.44,0,0,1-.16-.1.45.45,0,0,1-.11-.17.41.41,0,0,1,0-.19.43.43,0,0,1,0-.19.42.42,0,0,1,.11-.16.46.46,0,0,1,.16-.11.5.5,0,0,1,.38,0,.46.46,0,0,1,.16.11.47.47,0,0,1,.15.35.41.41,0,0,1,0,.19.45.45,0,0,1-.11.17.44.44,0,0,1-.16.1A.41.41,0,0,1,250,301.47Z" style="fill:#A90023"></path><path d="M249.5,304.63a.51.51,0,0,1,.5-.5h0a.5.5,0,0,1,.5.5h0a.5.5,0,0,1-.5.5h0A.5.5,0,0,1,249.5,304.63Z" style="fill:#A90023"></path><path d="M250,308.8a.51.51,0,0,1-.35-.15.42.42,0,0,1-.11-.16.45.45,0,0,1,0-.2.43.43,0,0,1,0-.19.42.42,0,0,1,.11-.16.51.51,0,0,1,.7,0,.42.42,0,0,1,.11.16.43.43,0,0,1,0,.19.45.45,0,0,1,0,.2.42.42,0,0,1-.11.16A.51.51,0,0,1,250,308.8Z" style="fill:#A90023"></path><path d="M346.32,308.8a.51.51,0,0,1-.35-.15.55.55,0,0,1-.15-.36.5.5,0,0,1,.85-.35.42.42,0,0,1,.11.16.43.43,0,0,1,0,.19.51.51,0,0,1-.5.51Z" style="fill:#A90023"></path><path d="M345.82,304.63a.51.51,0,0,1,.5-.5h0a.5.5,0,0,1,.5.5h0a.5.5,0,0,1-.5.5h0A.5.5,0,0,1,345.82,304.63Z" style="fill:#A90023"></path><path d="M346.32,301.47a.5.5,0,0,1-.35-.14.55.55,0,0,1-.15-.36.51.51,0,0,1,.15-.35.5.5,0,0,1,.7,0,.47.47,0,0,1,.15.35.51.51,0,0,1-.15.36A.5.5,0,0,1,346.32,301.47Z" style="fill:#A90023"></path><path d="M341.81,301a.5.5,0,0,1,.5-.5h0a.5.5,0,0,1,.5.5h0a.5.5,0,0,1-.5.5h0A.5.5,0,0,1,341.81,301Zm-4,0a.5.5,0,0,1,.51-.5h0a.5.5,0,0,1,.5.5h0a.5.5,0,0,1-.5.5h0A.5.5,0,0,1,337.79,301Zm-4,0a.5.5,0,0,1,.5-.5h0a.5.5,0,0,1,.5.5h0a.5.5,0,0,1-.5.5h0A.5.5,0,0,1,333.78,301Zm-4,0a.5.5,0,0,1,.5-.5h0a.5.5,0,0,1,.5.5h0a.5.5,0,0,1-.5.5h0A.5.5,0,0,1,329.77,301Zm-4,0a.5.5,0,0,1,.5-.5h0a.5.5,0,0,1,.51.5h0a.5.5,0,0,1-.51.5h0A.5.5,0,0,1,325.75,301Zm-4,0a.5.5,0,0,1,.5-.5h0a.5.5,0,0,1,.5.5h0a.5.5,0,0,1-.5.5h0A.5.5,0,0,1,321.74,301Zm-4,0a.5.5,0,0,1,.5-.5h0a.5.5,0,0,1,.5.5h0a.5.5,0,0,1-.5.5h0A.5.5,0,0,1,317.73,301Zm-4,0a.5.5,0,0,1,.5-.5h0a.5.5,0,0,1,.51.5h0a.5.5,0,0,1-.51.5h0A.5.5,0,0,1,313.71,301Zm-4,0a.5.5,0,0,1,.5-.5h0a.5.5,0,0,1,.5.5h0a.5.5,0,0,1-.5.5h0A.5.5,0,0,1,309.7,301Zm-4,0a.5.5,0,0,1,.5-.5h0a.5.5,0,0,1,.5.5h0a.5.5,0,0,1-.5.5h0A.5.5,0,0,1,305.69,301Zm-4,0a.5.5,0,0,1,.5-.5h0a.5.5,0,0,1,.5.5h0a.5.5,0,0,1-.5.5h0A.5.5,0,0,1,301.67,301Zm-4,0a.5.5,0,0,1,.5-.5h0a.5.5,0,0,1,.5.5h0a.5.5,0,0,1-.5.5h0A.5.5,0,0,1,297.66,301Zm-4,0a.5.5,0,0,1,.5-.5h0a.5.5,0,0,1,.5.5h0a.5.5,0,0,1-.5.5h0A.5.5,0,0,1,293.65,301Zm-4,0a.5.5,0,0,1,.5-.5h0a.5.5,0,0,1,.5.5h0a.5.5,0,0,1-.5.5h0A.5.5,0,0,1,289.63,301Zm-4,0a.5.5,0,0,1,.5-.5h0a.5.5,0,0,1,.5.5h0a.5.5,0,0,1-.5.5h0A.5.5,0,0,1,285.62,301Zm-4,0a.5.5,0,0,1,.5-.5h0a.5.5,0,0,1,.5.5h0a.5.5,0,0,1-.5.5h0A.5.5,0,0,1,281.61,301Zm-4,0a.5.5,0,0,1,.5-.5h0a.5.5,0,0,1,.51.5h0a.5.5,0,0,1-.51.5h0A.5.5,0,0,1,277.59,301Zm-4,0a.5.5,0,0,1,.5-.5h0a.5.5,0,0,1,.5.5h0a.5.5,0,0,1-.5.5h0A.5.5,0,0,1,273.58,301Zm-4,0a.5.5,0,0,1,.5-.5h0a.5.5,0,0,1,.5.5h0a.5.5,0,0,1-.5.5h0A.5.5,0,0,1,269.57,301Zm-4,0a.5.5,0,0,1,.5-.5h0a.5.5,0,0,1,.51.5h0a.5.5,0,0,1-.51.5h0A.5.5,0,0,1,265.55,301Zm-4,0a.5.5,0,0,1,.5-.5h0a.5.5,0,0,1,.5.5h0a.5.5,0,0,1-.5.5h0A.5.5,0,0,1,261.54,301Zm-4,0a.5.5,0,0,1,.5-.5h0a.5.5,0,0,1,.5.5h0a.5.5,0,0,1-.5.5h0A.5.5,0,0,1,257.53,301Zm-4,0a.5.5,0,0,1,.5-.5h0a.5.5,0,0,1,.51.5h0a.5.5,0,0,1-.51.5h0A.5.5,0,0,1,253.51,301Z" style="fill:#A90023"></path><path d="M250,301.47a.41.41,0,0,1-.19,0,.44.44,0,0,1-.16-.1.45.45,0,0,1-.11-.17.41.41,0,0,1,0-.19.43.43,0,0,1,0-.19.42.42,0,0,1,.11-.16.46.46,0,0,1,.16-.11.5.5,0,0,1,.38,0,.46.46,0,0,1,.16.11.47.47,0,0,1,.15.35.41.41,0,0,1,0,.19.45.45,0,0,1-.11.17.44.44,0,0,1-.16.1A.41.41,0,0,1,250,301.47Z" style="fill:#A90023"></path></g><g id="freepik--Cloud--inject-130"><path d="M402.55,195.51a59.91,59.91,0,0,0-59.91-59.41H317.89a72.38,72.38,0,0,0-62.77-36.31H207v18.37a72.4,72.4,0,0,0-22.52,38.31A62.32,62.32,0,0,0,188.5,281H386.82a44.18,44.18,0,0,0,15.73-85.47Z" style="fill:#A90023"></path><path d="M402.55,195.51a59.91,59.91,0,0,0-59.91-59.41H317.89a72.38,72.38,0,0,0-62.77-36.31H207v18.37a72.4,72.4,0,0,0-22.52,38.31A62.32,62.32,0,0,0,188.5,281H386.82a44.18,44.18,0,0,0,15.73-85.47Z" style="fill:#fff;opacity:0.7000000000000001"></path><path d="M354.38,195.51A59.93,59.93,0,0,0,272,140.45a72.41,72.41,0,0,0-135.76,16A62.32,62.32,0,0,0,140.33,281H338.65a44.18,44.18,0,0,0,15.73-85.47Z" style="fill:#A90023"></path><g style="clip-path:url(#freepik--clip-path--inject-130)"><path d="M402.55,195.51a59.93,59.93,0,0,0-82.34-55.06,72.42,72.42,0,0,0-135.77,16A62.32,62.32,0,0,0,188.5,281H386.82a44.18,44.18,0,0,0,15.73-85.47Z" style="opacity:0.1"></path></g><path d="M338.65,282H140.33a63.29,63.29,0,0,1-4.84-126.4A73.41,73.41,0,0,1,207,98.82a72.92,72.92,0,0,1,65.55,40.4,60.89,60.89,0,0,1,82.84,55.62A45.16,45.16,0,0,1,338.65,282ZM207,100.76a71.85,71.85,0,0,0-69.73,55.92,1,1,0,0,1-.89.76,61.35,61.35,0,0,0,4,122.57H338.65A43.21,43.21,0,0,0,354,196.42a1,1,0,0,1-.63-.9,59,59,0,0,0-81-54.17,1,1,0,0,1-1.24-.47A71,71,0,0,0,207,100.76Z" style="fill:#A90023"></path><path d="M338.65,282H140.33a63.29,63.29,0,0,1-4.84-126.4A73.41,73.41,0,0,1,207,98.82a72.92,72.92,0,0,1,65.55,40.4,60.89,60.89,0,0,1,82.84,55.62A45.16,45.16,0,0,1,338.65,282ZM207,100.76a71.85,71.85,0,0,0-69.73,55.92,1,1,0,0,1-.89.76,61.35,61.35,0,0,0,4,122.57H338.65A43.21,43.21,0,0,0,354,196.42a1,1,0,0,1-.63-.9,59,59,0,0,0-81-54.17,1,1,0,0,1-1.24-.47A71,71,0,0,0,207,100.76Z" style="fill:#fff;opacity:0.7000000000000001"></path><path d="M186.12,192.6H202a0,0,0,0,1,0,0V280a0,0,0,0,1,0,0H186.12a4.45,4.45,0,0,1-4.45-4.45V197A4.45,4.45,0,0,1,186.12,192.6Z" transform="translate(383.72 472.6) rotate(180)" style="fill:#e0e0e0"></path><rect x="144.53" y="192.6" width="43.18" height="87.41" rx="4.45" style="fill:#fff"></rect><rect x="144.53" y="261.87" width="43.18" height="0.81" style="fill:#e0e0e0"></rect><rect x="144.53" y="244.55" width="43.18" height="0.81" style="fill:#e0e0e0"></rect><rect x="144.53" y="227.24" width="43.18" height="0.81" style="fill:#e0e0e0"></rect><rect x="144.53" y="209.92" width="43.18" height="0.81" style="fill:#e0e0e0"></rect><path d="M166.06,204.3H151.62A1.65,1.65,0,0,0,150,206h0a1.65,1.65,0,0,0,1.65,1.65h14.44a1.65,1.65,0,0,0,1.65-1.65h0A1.65,1.65,0,0,0,166.06,204.3Z" style="fill:#A90023;opacity:0.6000000000000001"></path><path d="M166.06,200H151.62a1.65,1.65,0,0,0-1.65,1.65h0a1.65,1.65,0,0,0,1.65,1.65h14.44a1.65,1.65,0,0,0,1.65-1.65h0A1.65,1.65,0,0,0,166.06,200Z" style="fill:#A90023;opacity:0.6000000000000001"></path><path d="M166.06,195.73H151.62a1.65,1.65,0,0,0-1.65,1.65h0a1.65,1.65,0,0,0,1.65,1.65h14.44a1.65,1.65,0,0,0,1.65-1.65h0A1.65,1.65,0,0,0,166.06,195.73Z" style="fill:#A90023;opacity:0.6000000000000001"></path><rect x="169.22" y="204.3" width="6.03" height="3.3" transform="translate(344.48 411.89) rotate(180)" style="fill:#ebebeb"></rect><rect x="169.22" y="200.01" width="6.03" height="3.3" transform="translate(344.48 403.32) rotate(180)" style="fill:#A90023"></rect><rect x="169.22" y="195.73" width="6.03" height="3.3" transform="translate(344.48 394.75) rotate(180)" style="fill:#ebebeb"></rect><rect x="176.24" y="204.3" width="6.03" height="3.3" transform="translate(358.51 411.89) rotate(180)" style="fill:#ebebeb"></rect><rect x="176.24" y="200.01" width="6.03" height="3.3" transform="translate(358.51 403.32) rotate(180)" style="fill:#ebebeb"></rect><rect x="176.24" y="195.73" width="6.03" height="3.3" transform="translate(358.51 394.75) rotate(180)" style="fill:#A90023"></rect><path d="M166.06,221.62H151.62a1.65,1.65,0,0,0-1.65,1.65h0a1.65,1.65,0,0,0,1.65,1.65h14.44a1.65,1.65,0,0,0,1.65-1.65h0A1.65,1.65,0,0,0,166.06,221.62Z" style="fill:#ebebeb"></path><path d="M166.06,217.33H151.62A1.65,1.65,0,0,0,150,219h0a1.65,1.65,0,0,0,1.65,1.65h14.44a1.65,1.65,0,0,0,1.65-1.65h0A1.65,1.65,0,0,0,166.06,217.33Z" style="fill:#A90023;opacity:0.6000000000000001"></path><path d="M166.06,213.05H151.62A1.65,1.65,0,0,0,150,214.7h0a1.65,1.65,0,0,0,1.65,1.65h14.44a1.65,1.65,0,0,0,1.65-1.65h0A1.65,1.65,0,0,0,166.06,213.05Z" style="fill:#A90023;opacity:0.6000000000000001"></path><rect x="169.22" y="221.62" width="6.03" height="3.3" transform="translate(344.48 446.53) rotate(180)" style="fill:#ebebeb"></rect><rect x="169.22" y="217.33" width="6.03" height="3.3" transform="translate(344.48 437.96) rotate(180)" style="fill:#ebebeb"></rect><rect x="169.22" y="213.05" width="6.03" height="3.3" transform="translate(344.48 429.39) rotate(180)" style="fill:#A90023"></rect><rect x="176.24" y="221.62" width="6.03" height="3.3" transform="translate(358.51 446.53) rotate(180)" style="fill:#ebebeb"></rect><rect x="176.24" y="217.33" width="6.03" height="3.3" transform="translate(358.51 437.96) rotate(180)" style="fill:#ebebeb"></rect><rect x="176.24" y="213.05" width="6.03" height="3.3" transform="translate(358.51 429.39) rotate(180)" style="fill:#ebebeb"></rect><path d="M166.06,238.94H151.62a1.65,1.65,0,0,0-1.65,1.65h0a1.65,1.65,0,0,0,1.65,1.65h14.44a1.65,1.65,0,0,0,1.65-1.65h0A1.65,1.65,0,0,0,166.06,238.94Z" style="fill:#A90023;opacity:0.6000000000000001"></path><path d="M166.06,234.65H151.62A1.65,1.65,0,0,0,150,236.3h0a1.65,1.65,0,0,0,1.65,1.65h14.44a1.65,1.65,0,0,0,1.65-1.65h0A1.65,1.65,0,0,0,166.06,234.65Z" style="fill:#A90023;opacity:0.6000000000000001"></path><path d="M166.06,230.37H151.62A1.65,1.65,0,0,0,150,232h0a1.65,1.65,0,0,0,1.65,1.65h14.44a1.65,1.65,0,0,0,1.65-1.65h0A1.65,1.65,0,0,0,166.06,230.37Z" style="fill:#A90023;opacity:0.6000000000000001"></path><rect x="169.22" y="238.94" width="6.03" height="3.3" transform="translate(344.48 481.17) rotate(180)" style="fill:#ebebeb"></rect><rect x="169.22" y="234.65" width="6.03" height="3.3" transform="translate(344.48 472.6) rotate(180)" style="fill:#A90023"></rect><rect x="169.22" y="230.37" width="6.03" height="3.3" transform="translate(344.48 464.03) rotate(180)" style="fill:#ebebeb"></rect><rect x="176.24" y="238.94" width="6.03" height="3.3" transform="translate(358.51 481.17) rotate(180)" style="fill:#ebebeb"></rect><rect x="176.24" y="234.65" width="6.03" height="3.3" transform="translate(358.51 472.6) rotate(180)" style="fill:#ebebeb"></rect><rect x="176.24" y="230.37" width="6.03" height="3.3" transform="translate(358.51 464.03) rotate(180)" style="fill:#A90023"></rect><path d="M166.06,256.26H151.62a1.65,1.65,0,0,0-1.65,1.65h0a1.65,1.65,0,0,0,1.65,1.65h14.44a1.65,1.65,0,0,0,1.65-1.65h0A1.65,1.65,0,0,0,166.06,256.26Z" style="fill:#A90023;opacity:0.6000000000000001"></path><rect x="149.97" y="251.97" width="17.74" height="3.3" rx="1.65" style="fill:#A90023;opacity:0.6000000000000001"></rect><path d="M166.06,247.69H151.62a1.64,1.64,0,0,0-1.65,1.64h0a1.65,1.65,0,0,0,1.65,1.65h14.44a1.65,1.65,0,0,0,1.65-1.65h0A1.64,1.64,0,0,0,166.06,247.69Z" style="fill:#A90023;opacity:0.6000000000000001"></path><rect x="169.22" y="256.26" width="6.03" height="3.3" transform="translate(344.48 515.81) rotate(180)" style="fill:#ebebeb"></rect><rect x="169.22" y="251.97" width="6.03" height="3.3" transform="translate(344.48 507.24) rotate(180)" style="fill:#A90023"></rect><rect x="169.22" y="247.69" width="6.03" height="3.3" transform="translate(344.48 498.67) rotate(180)" style="fill:#ebebeb"></rect><rect x="176.24" y="256.26" width="6.03" height="3.3" transform="translate(358.51 515.81) rotate(180)" style="fill:#A90023"></rect><rect x="176.24" y="251.97" width="6.03" height="3.3" transform="translate(358.51 507.24) rotate(180)" style="fill:#ebebeb"></rect><rect x="176.24" y="247.69" width="6.03" height="3.3" transform="translate(358.51 498.67) rotate(180)" style="fill:#A90023"></rect><path d="M166.06,273.58H151.62a1.65,1.65,0,0,0-1.65,1.65h0a1.64,1.64,0,0,0,1.65,1.64h14.44a1.64,1.64,0,0,0,1.65-1.64h0A1.65,1.65,0,0,0,166.06,273.58Z" style="fill:#A90023;opacity:0.6000000000000001"></path><path d="M166.06,269.29H151.62a1.65,1.65,0,0,0-1.65,1.65h0a1.65,1.65,0,0,0,1.65,1.65h14.44a1.65,1.65,0,0,0,1.65-1.65h0A1.65,1.65,0,0,0,166.06,269.29Z" style="fill:#A90023;opacity:0.6000000000000001"></path><path d="M166.06,265H151.62a1.65,1.65,0,0,0-1.65,1.65h0a1.65,1.65,0,0,0,1.65,1.65h14.44a1.65,1.65,0,0,0,1.65-1.65h0A1.65,1.65,0,0,0,166.06,265Z" style="fill:#A90023;opacity:0.6000000000000001"></path><rect x="169.22" y="273.58" width="6.03" height="3.3" transform="translate(344.48 550.45) rotate(180)" style="fill:#A90023"></rect><rect x="169.22" y="269.29" width="6.03" height="3.3" transform="translate(344.48 541.88) rotate(180)" style="fill:#ebebeb"></rect><rect x="169.22" y="265" width="6.03" height="3.3" transform="translate(344.48 533.31) rotate(180)" style="fill:#ebebeb"></rect><rect x="176.24" y="273.58" width="6.03" height="3.3" transform="translate(358.51 550.45) rotate(180)" style="fill:#ebebeb"></rect><rect x="176.24" y="269.29" width="6.03" height="3.3" transform="translate(358.51 541.88) rotate(180)" style="fill:#ebebeb"></rect><rect x="176.24" y="265" width="6.03" height="3.3" transform="translate(358.51 533.31) rotate(180)" style="fill:#A90023"></rect><path d="M250.43,151.32h23.44a0,0,0,0,1,0,0V280a0,0,0,0,1,0,0H250.43a6.54,6.54,0,0,1-6.54-6.54V157.87A6.54,6.54,0,0,1,250.43,151.32Z" transform="translate(517.77 431.33) rotate(180)" style="fill:#e0e0e0"></path><rect x="189.2" y="151.32" width="63.56" height="128.68" rx="6.54" style="fill:#fff"></rect><rect x="189.2" y="253.31" width="63.56" height="1.2" style="fill:#e0e0e0"></rect><rect x="189.2" y="227.82" width="63.56" height="1.19" style="fill:#e0e0e0"></rect><rect x="189.2" y="202.32" width="63.56" height="1.19" style="fill:#e0e0e0"></rect><rect x="189.2" y="176.82" width="63.56" height="1.2" style="fill:#e0e0e0"></rect><path d="M220.9,168.55H199.64a2.43,2.43,0,0,0-2.43,2.43h0a2.43,2.43,0,0,0,2.43,2.43H220.9a2.43,2.43,0,0,0,2.43-2.43h0A2.43,2.43,0,0,0,220.9,168.55Z" style="fill:#A90023;opacity:0.6000000000000001"></path><path d="M220.9,162.24H199.64a2.43,2.43,0,0,0-2.43,2.43h0a2.43,2.43,0,0,0,2.43,2.43H220.9a2.43,2.43,0,0,0,2.43-2.43h0A2.43,2.43,0,0,0,220.9,162.24Z" style="fill:#A90023;opacity:0.6000000000000001"></path><path d="M220.9,155.93H199.64a2.43,2.43,0,0,0-2.43,2.43h0a2.43,2.43,0,0,0,2.43,2.43H220.9a2.43,2.43,0,0,0,2.43-2.43h0A2.43,2.43,0,0,0,220.9,155.93Z" style="fill:#A90023;opacity:0.6000000000000001"></path><rect x="225.56" y="168.55" width="8.88" height="4.86" transform="translate(459.99 341.96) rotate(180)" style="fill:#ebebeb"></rect><rect x="225.56" y="162.24" width="8.88" height="4.86" transform="translate(459.99 329.34) rotate(180)" style="fill:#A90023"></rect><rect x="225.56" y="155.93" width="8.88" height="4.86" transform="translate(459.99 316.72) rotate(180)" style="fill:#ebebeb"></rect><rect x="235.89" y="168.55" width="8.88" height="4.86" transform="translate(480.65 341.96) rotate(180)" style="fill:#ebebeb"></rect><rect x="235.89" y="162.24" width="8.88" height="4.86" transform="translate(480.65 329.34) rotate(180)" style="fill:#ebebeb"></rect><rect x="235.89" y="155.93" width="8.88" height="4.86" transform="translate(480.65 316.72) rotate(180)" style="fill:#A90023"></rect><path d="M220.9,194.05H199.64a2.43,2.43,0,0,0-2.43,2.43h0a2.43,2.43,0,0,0,2.43,2.43H220.9a2.43,2.43,0,0,0,2.43-2.43h0A2.43,2.43,0,0,0,220.9,194.05Z" style="fill:#A90023;opacity:0.6000000000000001"></path><path d="M220.9,187.74H199.64a2.43,2.43,0,0,0-2.43,2.43h0a2.43,2.43,0,0,0,2.43,2.43H220.9a2.43,2.43,0,0,0,2.43-2.43h0A2.43,2.43,0,0,0,220.9,187.74Z" style="fill:#A90023;opacity:0.6000000000000001"></path><path d="M220.9,181.43H199.64a2.43,2.43,0,0,0-2.43,2.43h0a2.43,2.43,0,0,0,2.43,2.43H220.9a2.43,2.43,0,0,0,2.43-2.43h0A2.43,2.43,0,0,0,220.9,181.43Z" style="fill:#A90023;opacity:0.6000000000000001"></path><rect x="225.56" y="194.05" width="8.88" height="4.86" transform="translate(459.99 392.95) rotate(180)" style="fill:#ebebeb"></rect><rect x="225.56" y="187.74" width="8.88" height="4.86" transform="translate(459.99 380.34) rotate(180)" style="fill:#ebebeb"></rect><rect x="225.56" y="181.43" width="8.88" height="4.86" transform="translate(459.99 367.72) rotate(180)" style="fill:#A90023"></rect><rect x="235.89" y="194.05" width="8.88" height="4.86" transform="translate(480.65 392.95) rotate(180)" style="fill:#A90023"></rect><rect x="235.89" y="187.74" width="8.88" height="4.86" transform="translate(480.65 380.34) rotate(180)" style="fill:#ebebeb"></rect><rect x="235.89" y="181.43" width="8.88" height="4.86" transform="translate(480.65 367.72) rotate(180)" style="fill:#A90023"></rect><path d="M220.9,219.55H199.64a2.42,2.42,0,0,0-2.43,2.42h0a2.42,2.42,0,0,0,2.43,2.43H220.9a2.43,2.43,0,0,0,2.43-2.43h0A2.42,2.42,0,0,0,220.9,219.55Z" style="fill:#A90023;opacity:0.6000000000000001"></path><path d="M220.9,213.24H199.64a2.42,2.42,0,0,0-2.43,2.42h0a2.42,2.42,0,0,0,2.43,2.43H220.9a2.43,2.43,0,0,0,2.43-2.43h0A2.42,2.42,0,0,0,220.9,213.24Z" style="fill:#A90023;opacity:0.6000000000000001"></path><path d="M220.9,206.93H199.64a2.42,2.42,0,0,0-2.43,2.43h0a2.42,2.42,0,0,0,2.43,2.42H220.9a2.42,2.42,0,0,0,2.43-2.42h0A2.43,2.43,0,0,0,220.9,206.93Z" style="fill:#A90023;opacity:0.6000000000000001"></path><rect x="225.56" y="219.55" width="8.88" height="4.86" transform="translate(459.99 443.95) rotate(180)" style="fill:#A90023"></rect><rect x="225.56" y="213.24" width="8.88" height="4.86" transform="translate(459.99 431.33) rotate(180)" style="fill:#ebebeb"></rect><rect x="225.56" y="206.93" width="8.88" height="4.86" transform="translate(459.99 418.71) rotate(180)" style="fill:#ebebeb"></rect><rect x="235.89" y="219.55" width="8.88" height="4.86" transform="translate(480.65 443.95) rotate(180)" style="fill:#ebebeb"></rect><rect x="235.89" y="213.24" width="8.88" height="4.86" transform="translate(480.65 431.33) rotate(180)" style="fill:#ebebeb"></rect><rect x="235.89" y="206.93" width="8.88" height="4.86" transform="translate(480.65 418.71) rotate(180)" style="fill:#A90023"></rect><path d="M220.9,245H199.64a2.43,2.43,0,0,0-2.43,2.43h0a2.43,2.43,0,0,0,2.43,2.43H220.9a2.43,2.43,0,0,0,2.43-2.43h0A2.43,2.43,0,0,0,220.9,245Z" style="fill:#A90023;opacity:0.6000000000000001"></path><path d="M220.9,238.73H199.64a2.43,2.43,0,0,0-2.43,2.43h0a2.43,2.43,0,0,0,2.43,2.43H220.9a2.43,2.43,0,0,0,2.43-2.43h0A2.43,2.43,0,0,0,220.9,238.73Z" style="fill:#ebebeb"></path><path d="M220.9,232.42H199.64a2.43,2.43,0,0,0-2.43,2.43h0a2.43,2.43,0,0,0,2.43,2.43H220.9a2.43,2.43,0,0,0,2.43-2.43h0A2.43,2.43,0,0,0,220.9,232.42Z" style="fill:#A90023;opacity:0.6000000000000001"></path><rect x="225.56" y="245.04" width="8.88" height="4.86" transform="translate(459.99 494.94) rotate(180)" style="fill:#ebebeb"></rect><rect x="225.56" y="238.73" width="8.88" height="4.86" transform="translate(459.99 482.32) rotate(180)" style="fill:#A90023"></rect><rect x="225.56" y="232.42" width="8.88" height="4.86" transform="translate(459.99 469.71) rotate(180)" style="fill:#ebebeb"></rect><rect x="235.89" y="245.04" width="8.88" height="4.86" transform="translate(480.65 494.94) rotate(180)" style="fill:#A90023"></rect><rect x="235.89" y="238.73" width="8.88" height="4.86" transform="translate(480.65 482.32) rotate(180)" style="fill:#A90023"></rect><rect x="235.89" y="232.42" width="8.88" height="4.86" transform="translate(480.65 469.71) rotate(180)" style="fill:#ebebeb"></rect><path d="M220.9,270.54H199.64a2.43,2.43,0,0,0-2.43,2.43h0a2.43,2.43,0,0,0,2.43,2.43H220.9a2.43,2.43,0,0,0,2.43-2.43h0A2.43,2.43,0,0,0,220.9,270.54Z" style="fill:#A90023;opacity:0.6000000000000001"></path><path d="M220.9,264.23H199.64a2.43,2.43,0,0,0-2.43,2.43h0a2.43,2.43,0,0,0,2.43,2.43H220.9a2.43,2.43,0,0,0,2.43-2.43h0A2.43,2.43,0,0,0,220.9,264.23Z" style="fill:#A90023;opacity:0.6000000000000001"></path><path d="M220.9,257.92H199.64a2.43,2.43,0,0,0-2.43,2.43h0a2.43,2.43,0,0,0,2.43,2.43H220.9a2.43,2.43,0,0,0,2.43-2.43h0A2.43,2.43,0,0,0,220.9,257.92Z" style="fill:#A90023;opacity:0.6000000000000001"></path><rect x="225.56" y="270.54" width="8.88" height="4.86" transform="translate(459.99 545.94) rotate(180)" style="fill:#ebebeb"></rect><rect x="225.56" y="264.23" width="8.88" height="4.86" transform="translate(459.99 533.32) rotate(180)" style="fill:#ebebeb"></rect><rect x="225.56" y="257.92" width="8.88" height="4.86" transform="translate(459.99 520.7) rotate(180)" style="fill:#ebebeb"></rect><rect x="235.89" y="270.54" width="8.88" height="4.86" transform="translate(480.65 545.94) rotate(180)" style="fill:#ebebeb"></rect><rect x="235.89" y="264.23" width="8.88" height="4.86" transform="translate(480.65 533.32) rotate(180)" style="fill:#ebebeb"></rect><rect x="235.89" y="257.92" width="8.88" height="4.86" transform="translate(480.65 520.7) rotate(180)" style="fill:#A90023"></rect><path d="M307.9,168.08H328.3a0,0,0,0,1,0,0V280a0,0,0,0,1,0,0H307.9a5.69,5.69,0,0,1-5.69-5.69V173.78A5.69,5.69,0,0,1,307.9,168.08Z" transform="translate(630.51 448.09) rotate(180)" style="fill:#e0e0e0"></path><rect x="254.65" y="168.08" width="55.28" height="111.92" rx="5.69" style="fill:#fff"></rect><rect x="254.65" y="256.79" width="55.28" height="1.04" style="fill:#e0e0e0"></rect><rect x="254.65" y="234.61" width="55.28" height="1.04" style="fill:#e0e0e0"></rect><rect x="254.65" y="212.44" width="55.28" height="1.04" style="fill:#e0e0e0"></rect><rect x="254.65" y="190.26" width="55.28" height="1.04" style="fill:#e0e0e0"></rect><path d="M282.22,183.07h-18.5a2.11,2.11,0,0,0-2.11,2.11h0a2.11,2.11,0,0,0,2.11,2.11h18.5a2.11,2.11,0,0,0,2.11-2.11h0A2.11,2.11,0,0,0,282.22,183.07Z" style="fill:#A90023;opacity:0.6000000000000001"></path><path d="M282.22,177.58h-18.5a2.12,2.12,0,0,0-2.11,2.11h0a2.11,2.11,0,0,0,2.11,2.11h18.5a2.11,2.11,0,0,0,2.11-2.11h0A2.12,2.12,0,0,0,282.22,177.58Z" style="fill:#A90023;opacity:0.6000000000000001"></path><path d="M282.22,172.09h-18.5a2.12,2.12,0,0,0-2.11,2.11h0a2.12,2.12,0,0,0,2.11,2.12h18.5a2.12,2.12,0,0,0,2.11-2.12h0A2.12,2.12,0,0,0,282.22,172.09Z" style="fill:#A90023;opacity:0.6000000000000001"></path><rect x="286.27" y="260.8" width="7.72" height="4.22" transform="translate(580.26 525.82) rotate(180)" style="fill:#ebebeb"></rect><rect x="286.27" y="266.29" width="7.72" height="4.22" transform="translate(580.26 536.79) rotate(180)" style="fill:#A90023"></rect><rect x="286.27" y="271.77" width="7.72" height="4.22" transform="translate(580.26 547.77) rotate(180)" style="fill:#ebebeb"></rect><rect x="295.25" y="260.8" width="7.72" height="4.22" transform="translate(598.23 525.82) rotate(180)" style="fill:#ebebeb"></rect><rect x="295.25" y="266.29" width="7.72" height="4.22" transform="translate(598.23 536.79) rotate(180)" style="fill:#ebebeb"></rect><rect x="295.25" y="271.77" width="7.72" height="4.22" transform="translate(598.23 547.77) rotate(180)" style="fill:#A90023"></rect><path d="M282.22,205.24h-18.5a2.12,2.12,0,0,0-2.11,2.12h0a2.12,2.12,0,0,0,2.11,2.11h18.5a2.12,2.12,0,0,0,2.11-2.11h0A2.12,2.12,0,0,0,282.22,205.24Z" style="fill:#ebebeb"></path><path d="M282.22,199.76h-18.5a2.11,2.11,0,0,0-2.11,2.11h0a2.12,2.12,0,0,0,2.11,2.11h18.5a2.12,2.12,0,0,0,2.11-2.11h0A2.11,2.11,0,0,0,282.22,199.76Z" style="fill:#A90023;opacity:0.6000000000000001"></path><path d="M282.22,194.27h-18.5a2.11,2.11,0,0,0-2.11,2.11h0a2.11,2.11,0,0,0,2.11,2.11h18.5a2.11,2.11,0,0,0,2.11-2.11h0A2.11,2.11,0,0,0,282.22,194.27Z" style="fill:#A90023;opacity:0.6000000000000001"></path><rect x="286.27" y="238.62" width="7.72" height="4.22" transform="translate(580.26 481.47) rotate(180)" style="fill:#ebebeb"></rect><rect x="286.27" y="244.11" width="7.72" height="4.22" transform="translate(580.26 492.44) rotate(180)" style="fill:#ebebeb"></rect><rect x="286.27" y="249.6" width="7.72" height="4.22" transform="translate(580.26 503.42) rotate(180)" style="fill:#A90023"></rect><rect x="295.25" y="238.62" width="7.72" height="4.22" transform="translate(598.23 481.47) rotate(180)" style="fill:#A90023"></rect><rect x="295.25" y="244.11" width="7.72" height="4.22" transform="translate(598.23 492.44) rotate(180)" style="fill:#ebebeb"></rect><rect x="295.25" y="249.6" width="7.72" height="4.22" transform="translate(598.23 503.42) rotate(180)" style="fill:#A90023"></rect><path d="M282.22,227.42h-18.5a2.12,2.12,0,0,0-2.11,2.11h0a2.11,2.11,0,0,0,2.11,2.11h18.5a2.11,2.11,0,0,0,2.11-2.11h0A2.12,2.12,0,0,0,282.22,227.42Z" style="fill:#A90023;opacity:0.6000000000000001"></path><path d="M282.22,221.93h-18.5a2.12,2.12,0,0,0-2.11,2.11h0a2.12,2.12,0,0,0,2.11,2.12h18.5a2.12,2.12,0,0,0,2.11-2.12h0A2.12,2.12,0,0,0,282.22,221.93Z" style="fill:#A90023;opacity:0.6000000000000001"></path><path d="M282.22,216.45h-18.5a2.11,2.11,0,0,0-2.11,2.11h0a2.12,2.12,0,0,0,2.11,2.11h18.5a2.12,2.12,0,0,0,2.11-2.11h0A2.11,2.11,0,0,0,282.22,216.45Z" style="fill:#A90023;opacity:0.6000000000000001"></path><rect x="286.27" y="216.45" width="7.72" height="4.22" transform="translate(580.26 437.11) rotate(180)" style="fill:#A90023"></rect><rect x="286.27" y="221.93" width="7.72" height="4.22" transform="translate(580.26 448.09) rotate(180)" style="fill:#ebebeb"></rect><rect x="286.27" y="227.42" width="7.72" height="4.22" transform="translate(580.26 459.06) rotate(180)" style="fill:#ebebeb"></rect><rect x="295.25" y="216.45" width="7.72" height="4.22" transform="translate(598.23 437.11) rotate(180)" style="fill:#ebebeb"></rect><rect x="295.25" y="221.93" width="7.72" height="4.22" transform="translate(598.23 448.09) rotate(180)" style="fill:#ebebeb"></rect><rect x="295.25" y="227.42" width="7.72" height="4.22" transform="translate(598.23 459.06) rotate(180)" style="fill:#A90023"></rect><path d="M282.22,249.6h-18.5a2.11,2.11,0,0,0-2.11,2.11h0a2.12,2.12,0,0,0,2.11,2.11h18.5a2.12,2.12,0,0,0,2.11-2.11h0A2.11,2.11,0,0,0,282.22,249.6Z" style="fill:#A90023;opacity:0.6000000000000001"></path><path d="M282.22,244.11h-18.5a2.11,2.11,0,0,0-2.11,2.11h0a2.11,2.11,0,0,0,2.11,2.11h18.5a2.11,2.11,0,0,0,2.11-2.11h0A2.11,2.11,0,0,0,282.22,244.11Z" style="fill:#A90023;opacity:0.6000000000000001"></path><path d="M282.22,238.62h-18.5a2.12,2.12,0,0,0-2.11,2.11h0a2.12,2.12,0,0,0,2.11,2.12h18.5a2.12,2.12,0,0,0,2.11-2.12h0A2.12,2.12,0,0,0,282.22,238.62Z" style="fill:#A90023;opacity:0.6000000000000001"></path><rect x="286.27" y="194.27" width="7.72" height="4.22" transform="translate(580.26 392.76) rotate(180)" style="fill:#ebebeb"></rect><rect x="286.27" y="199.76" width="7.72" height="4.22" transform="translate(580.26 403.74) rotate(180)" style="fill:#A90023"></rect><rect x="286.27" y="205.24" width="7.72" height="4.22" transform="translate(580.26 414.71) rotate(180)" style="fill:#ebebeb"></rect><rect x="295.25" y="194.27" width="7.72" height="4.22" transform="translate(598.23 392.76) rotate(180)" style="fill:#A90023"></rect><rect x="295.25" y="199.76" width="7.72" height="4.22" transform="translate(598.23 403.74) rotate(180)" style="fill:#ebebeb"></rect><rect x="295.25" y="205.24" width="7.72" height="4.22" transform="translate(598.23 414.71) rotate(180)" style="fill:#ebebeb"></rect><path d="M282.22,271.77h-18.5a2.12,2.12,0,0,0-2.11,2.11h0a2.12,2.12,0,0,0,2.11,2.12h18.5a2.12,2.12,0,0,0,2.11-2.12h0A2.12,2.12,0,0,0,282.22,271.77Z" style="fill:#A90023;opacity:0.6000000000000001"></path><path d="M282.22,266.29h-18.5a2.11,2.11,0,0,0-2.11,2.11h0a2.12,2.12,0,0,0,2.11,2.11h18.5a2.12,2.12,0,0,0,2.11-2.11h0A2.11,2.11,0,0,0,282.22,266.29Z" style="fill:#A90023;opacity:0.6000000000000001"></path><rect x="261.61" y="260.8" width="22.72" height="4.22" rx="2.11" style="fill:#A90023;opacity:0.6000000000000001"></rect><rect x="286.27" y="172.09" width="7.72" height="4.22" transform="translate(580.26 348.41) rotate(180)" style="fill:#A90023"></rect><rect x="286.27" y="177.58" width="7.72" height="4.22" transform="translate(580.26 359.38) rotate(180)" style="fill:#ebebeb"></rect><rect x="286.27" y="183.07" width="7.72" height="4.22" transform="translate(580.26 370.36) rotate(180)" style="fill:#ebebeb"></rect><rect x="295.25" y="172.09" width="7.72" height="4.22" transform="translate(598.23 348.41) rotate(180)" style="fill:#ebebeb"></rect><rect x="295.25" y="177.58" width="7.72" height="4.22" transform="translate(598.23 359.38) rotate(180)" style="fill:#ebebeb"></rect><rect x="295.25" y="183.07" width="7.72" height="4.22" transform="translate(598.23 370.36) rotate(180)" style="fill:#A90023"></rect></g></svg>