<svg xmlns="http://www.w3.org/2000/svg" xmlns:xlink="http://www.w3.org/1999/xlink" viewBox="0 0 500 500"><defs><clipPath id="freepik--clip-path--inject-35"><path d="M234,303.86s11.61-22.18,15.59-31.19,6.42-14.9,9.71-20.28,0-24.6-3.12-29.8-9.45-10.32-12.27-8.71-4.71,14.77-4.54,20.14-3.47,18-5.2,25.31-13.34,26.16-14.21,34.48S224.45,309.06,234,303.86Z" style="fill:#FF9800;stroke:#263238;stroke-linecap:round;stroke-linejoin:round"></path></clipPath><clipPath id="freepik--clip-path-2--inject-35"><path d="M279.86,181.53s2.51,8.63.94,13.19-7.38,7.22-15.39,10.36-19.16,3.46-21.52,8.8,8.33,30.78,9.58,40.51,5.82,21.68,7.39,27.49,1.72,7.38,1.72,8.32S254.1,324,251.43,335.58a166.18,166.18,0,0,0-3.29,25.29H350.53s-4.87-33.29-10.21-47-14.13-24.65-14.13-29.52,12.24-42.09,14.13-51.67,6.28-14.45,2.67-21S331.84,203,331.84,203L321,197.86s-14.29-3.14-15.39-4.4-4.08-4.71-5.34-14.6a160.58,160.58,0,0,1-.94-21.05S288.5,176,279.86,181.53Z" style="fill:#FF9800;stroke:#263238;stroke-linecap:round;stroke-linejoin:round"></path></clipPath><clipPath id="freepik--clip-path-3--inject-35"><path d="M271,202.76c.26,7.26,1.12,24.08,3.67,32.79A67.16,67.16,0,0,0,285,255.81s14.29-16.65,22.14-36.44a103.48,103.48,0,0,0,6.54-23.24c-3.71-.94-7.56-2-8.11-2.67-1.1-1.26-4.08-4.71-5.34-14.6a160.58,160.58,0,0,1-.94-21.05S288.5,176,279.86,181.53c0,0,2.51,8.63.94,13.19C279.63,198.12,276.08,200.48,271,202.76Z" style="fill:#fff;stroke:#263238;stroke-linecap:round;stroke-linejoin:round"></path></clipPath><clipPath id="freepik--clip-path-4--inject-35"><path d="M259.1,142.37s2.52,13.82,2.52,19.78,6.43,18.22,12.72,22.78,11.46,3.45,16.49-.16,10.36-9,14.13-20.89S304.65,141,302.45,135s-18.53-9.9-30-7.07S259.26,137.66,259.1,142.37Z" style="fill:#fff;stroke:#263238;stroke-linecap:round;stroke-linejoin:round"></path></clipPath><clipPath id="freepik--clip-path-5--inject-35"><path d="M254.28,127.08,251,143.25a33.2,33.2,0,0,0,8.32,2.36c4.08.47,6.6.78,6.6.78l1.72-4.39.95,4.55a25,25,0,0,0,8.63.63,44.42,44.42,0,0,1,6.6-.63l1.88-3.77.63,3.77h3.3a23.46,23.46,0,0,0,8-1.57S303,164,303,192.25s-3.46,48.21-3.46,48.21,5.81-3.3,7.07-5,5.34-15.24,5.34-15.24l.94,8.8a45.6,45.6,0,0,0,7.7-9.43c3.3-5.49,6.44-20.1,6.44-20.1l.94,3.77,8.95,3.93s-8.28-55.39-13.62-73.45-8-25-18.22-32.5-29.09-4.45-38.83,2.61S254.28,127.08,254.28,127.08Z" style="fill:#263238"></path></clipPath><clipPath id="freepik--clip-path-6--inject-35"><path d="M199.24,376.74l11.44,43c0,2.92,7.72,5.29,17.24,5.29s17.24-2.37,17.24-5.29l11.44-43Z" style="fill:#fff;stroke:#263238;stroke-linecap:round;stroke-linejoin:round"></path></clipPath><clipPath id="freepik--clip-path-7--inject-35"><path d="M321.32,221.57s-4.4,20.42-4.71,21.83-8.17,16-11.15,24a84,84,0,0,0-4.4,15.07c-.16,1.42-10.84,18.85-16.49,28s-13,21.36-14.76,22.77-9.58,4.08-12.1,5.34-5.18,2.67-6.91,4.87-6.12,8.16-8.63,10.05-5.5,2.51-4.56,3.92,3.3,1.73,5.81.63a54.88,54.88,0,0,0,8.64-5.49,23.19,23.19,0,0,1,2.67-1.89s-7.27,22.6-7.9,25.74a2.39,2.39,0,0,0,3.61,2.67c.94-.78,8.85-20.09,10.1-22.44s2-4.4,2.51-3.61,0,6.43-1.72,10.68-6.44,15.39-5.66,16.64,2.52-.16,4.24-2.51,4.09-6.13,5.34-7.85,2.83-3.3,7.54-6.44,7.7-9.11,9.89-16.49,1.89-11,3.3-14.14,25.91-23.71,30.94-31.72,7.69-17.9,8.32-19.63,10.21-17.12,14.29-29.68,3.93-25.13,4.72-31.25-1.58-13-7.39-15.08" style="fill:#FF9800;stroke:#263238;stroke-linecap:round;stroke-linejoin:round"></path></clipPath><clipPath id="freepik--clip-path-8--inject-35"><path d="M221.58,240.32s3.89,10.93,4.8,13.47a12.18,12.18,0,0,1,.09,8.4c-1.09,3.17-5.7,20.61-8.5,28.12s4.16,16.63,7.23,18.26,7.23-1.09,9.94-7,2.08-16.09,2-23.69-1.71-18.62-1.53-20.52,2.53-4.34,1.71-9.49-1.26-6.87-1.26-8.86.36-6.51-3.26-7.68S221.4,233.35,221.58,240.32Z" style="fill:#fff;stroke:#263238;stroke-linecap:round;stroke-linejoin:round"></path></clipPath><clipPath id="freepik--clip-path-9--inject-35"><path d="M235.14,301.61c2.72-5.88,2.08-16.09,2-23.69,0-2.2-.18-4.68-.38-7.15-6.47,4.6-10.66,2.43-12.85.22-1.85,6.48-4.22,14.74-5.93,19.32-2.8,7.5,4.16,16.63,7.23,18.26S232.43,307.48,235.14,301.61Z" style="fill:#FF9800;stroke:#263238;stroke-linecap:round;stroke-linejoin:round"></path></clipPath></defs><g id="freepik--background-simple--inject-35"><path d="M173,392.52s60.49,25.78,122.63-5.73,96-99.44,124.91-153.76S437.1,121,392.23,92.27s-78.1,7.62-142.9,5.59-81.76-12.41-137.25,21.22S42.66,239.2,81.89,306.18,173,392.52,173,392.52Z" style="fill:#FF9800"></path><path d="M173,392.52s60.49,25.78,122.63-5.73,96-99.44,124.91-153.76S437.1,121,392.23,92.27s-78.1,7.62-142.9,5.59-81.76-12.41-137.25,21.22S42.66,239.2,81.89,306.18,173,392.52,173,392.52Z" style="fill:#fff;opacity:0.7000000000000001"></path></g><g id="freepik--Spotlights--inject-35"><rect x="89.55" y="184.04" width="3.24" height="176.7" transform="translate(182.33 544.77) rotate(180)" style="fill:#263238"></rect><path d="M85.29,177.4c3.88-6.49,10.58-9.75,15.69-7.94l26.27,1.27L98.47,217l-13.73-22.9,0-.07C81.69,190.09,81.73,183.34,85.29,177.4Z" style="fill:#263238"></path><ellipse cx="119.06" cy="198.02" rx="29.01" ry="21.21" transform="translate(-112 198.58) rotate(-59.12)" style="fill:#fff"></ellipse><rect x="87.23" y="255.27" width="7.4" height="11.1" transform="translate(181.87 521.65) rotate(180)" style="fill:#263238"></rect><rect x="87.23" y="323.27" width="7.4" height="11.1" transform="translate(181.87 657.64) rotate(180)" style="fill:#263238"></rect><rect x="421" y="184.04" width="3.24" height="176.7" style="fill:#263238"></rect><path d="M428.5,177.4c-3.88-6.49-10.59-9.75-15.69-7.94l-26.27,1.27L415.31,217l13.74-22.9L429,194C432.1,190.09,432.05,183.34,428.5,177.4Z" style="fill:#263238"></path><ellipse cx="394.73" cy="198.02" rx="21.21" ry="29.01" transform="translate(-45.68 230.65) rotate(-30.88)" style="fill:#fff"></ellipse><rect x="419.15" y="255.27" width="7.4" height="11.1" style="fill:#263238"></rect><rect x="419.15" y="323.27" width="7.4" height="11.1" style="fill:#263238"></rect></g></svg>