<svg xmlns="http://www.w3.org/2000/svg" viewBox="0 0 500 500"><g id="freepik--Shadow--inject-41"><ellipse cx="249.88" cy="398.15" rx="210.75" ry="53.22" style="fill:#A90023"></ellipse><ellipse cx="249.88" cy="398.15" rx="210.75" ry="53.22" style="fill:#fff;opacity:0.5"></ellipse></g><g id="freepik--Character--inject-41"><path d="M382.3,140.75V274.17l-5.1-.63V144.93a8.31,8.31,0,0,0-3.05-6.42c-7.45-6.06-26.49-20.73-33.19-17.87-6.28,2.68-34.14,94.17-47.8,140.15-4.61,15.5-7.6,25.83-7.6,25.83l-6.61,1.18s3-11.29,7.68-28.13c13.3-47.82,40.22-140.29,50.77-145.08h0a2,2,0,0,1,.63-.17c3-.29,6.86.74,11,2.53,1.19.51,2.41,1.08,3.65,1.71,2,1,4.08,2.15,6.12,3.37,1.09.65,2.18,1.31,3.26,2,2,1.26,3.93,2.55,5.78,3.82l2.1,1.46c1.95,1.4,3.77,2.73,5.37,3.93s2.75,2.1,3.81,2.93l1.48,1.17a4.29,4.29,0,0,1,1.62,3.14A1.37,1.37,0,0,1,382.3,140.75Z" style="fill:#A90023;stroke:#263238;stroke-miterlimit:10"></path><path d="M387.68,110.72l-38.59,6.22-10,1.61a3.13,3.13,0,0,1-.42,0,2.35,2.35,0,0,1-2.37-1.79,2.1,2.1,0,0,1,1.07-2.21h0a2.55,2.55,0,0,1,.84-.3l48.57-7.82a2.39,2.39,0,0,1,2.8,1.75A2.19,2.19,0,0,1,387.68,110.72Z" style="fill:#A90023;stroke:#263238;stroke-miterlimit:10"></path><path d="M400.82,114.78l-42,7.24-4.68.8a2.83,2.83,0,0,1-.41,0A2.29,2.29,0,0,1,351.5,121a2.18,2.18,0,0,1,1.24-2.37,2.34,2.34,0,0,1,.63-.21l46.63-8a2.29,2.29,0,0,1,2.68,1.79A2.22,2.22,0,0,1,400.82,114.78Z" style="fill:#A90023;stroke:#263238;stroke-miterlimit:10"></path><path d="M410.72,120l-42.82,7.82-4.81.88a1.9,1.9,0,0,1-.41,0,2.36,2.36,0,0,1-2.32-2,2.38,2.38,0,0,1,1.76-2.76l.14,0,47.63-8.7a2.37,2.37,0,0,1,2.74,1.94A2.41,2.41,0,0,1,410.72,120Z" style="fill:#A90023;stroke:#263238;stroke-miterlimit:10"></path><path d="M419.93,125.23l-44.56,8-4.22.75a2.09,2.09,0,0,1-.43,0,2.42,2.42,0,0,1-.72-4.72,1.46,1.46,0,0,1,.3-.07l48.78-8.75a2.42,2.42,0,1,1,.85,4.76Z" style="fill:#A90023;stroke:#263238;stroke-miterlimit:10"></path><path d="M430.39,131.52a2.23,2.23,0,0,1-1.09.5l-47,8.44-1.75.31a3.11,3.11,0,0,1-.43,0,2.42,2.42,0,0,1-.92-4.65,2,2,0,0,1,.49-.14l48.78-8.75a2.36,2.36,0,0,1,1.37.16,2.41,2.41,0,0,1,.57,4.1Z" style="fill:#A90023;stroke:#263238;stroke-miterlimit:10"></path><path d="M429.3,132l-47,8.44a1.37,1.37,0,0,1,0,.29v71l-5.1,7.16V144.93a8.31,8.31,0,0,0-3.05-6.42c-7.45-6.06-26.49-20.73-33.19-17.87-6.28,2.68-34.14,94.17-47.8,140.15l-5.68,1-.85-2.14c13.3-47.82,40.22-140.29,50.77-145.08h0a2.55,2.55,0,0,1,.84-.3l48.57-7.82a2.39,2.39,0,0,1,2.8,1.75,2.19,2.19,0,0,1-1.95,2.51l-38.59,6.22c1.19.51,2.41,1.08,3.65,1.71a2.34,2.34,0,0,1,.63-.21l46.63-8a2.29,2.29,0,0,1,2.68,1.79,2.22,2.22,0,0,1-1.86,2.58l-42,7.24c1.09.65,2.18,1.31,3.26,2l.14,0,47.63-8.7a2.37,2.37,0,0,1,2.74,1.94,2.41,2.41,0,0,1-1.91,2.8l-42.82,7.82,2.1,1.46a1.46,1.46,0,0,1,.3-.07l48.78-8.75a2.42,2.42,0,1,1,.85,4.76l-44.56,8c1.47,1.1,2.75,2.1,3.81,2.93a2,2,0,0,1,.49-.14l48.78-8.75a2.36,2.36,0,0,1,1.37.16c.22,1.41.4,2.78.57,4.1A2.23,2.23,0,0,1,429.3,132Z" style="opacity:0.30000000000000004"></path><path d="M447.41,326.06s-7.3-12.76-24.32-8.49c-7.37,1-13.21,15.24-13.21,32.63,0,18,6.28,32.65,14,32.69l.06.28s13.34,3,21.21-3.74S447.41,326.06,447.41,326.06Z" style="fill:#263238"></path><ellipse cx="440.94" cy="351.38" rx="12.67" ry="29.45" style="fill:#263238"></ellipse><ellipse cx="440.94" cy="351.38" rx="12.67" ry="29.45" style="opacity:0.30000000000000004"></ellipse><path d="M443.78,349.48c0,9.3-3.17,16.83-7.08,16.83a3.2,3.2,0,0,1-1.41-.33h0c-3.22-1.58-5.65-8.36-5.65-16.5s2.43-14.91,5.65-16.49h0a3.22,3.22,0,0,1,1.41-.34C440.61,332.65,443.78,340.19,443.78,349.48Z" style="fill:#fff;stroke:#263238;stroke-miterlimit:10"></path><path d="M440.94,349.48c0,8.14-2.42,14.92-5.65,16.5h0c-3.22-1.58-5.65-8.36-5.65-16.5s2.43-14.91,5.65-16.49h0C438.52,334.57,440.94,341.35,440.94,349.48Z" style="fill:#fff;stroke:#263238;stroke-miterlimit:10"></path><path d="M451.14,304.68c0,6.13.65,11.33-4.12,13.86s-13.24,6.51-17,25.51c-3.37,17,.44,22.7-5.28,24.25-4.45,1.22-38.25,9.42-52.89,13l-6.73,1.63-36.49-24.44-.89-.6-4.05-2.72,4.05-18.9.47-2.2,19.22-26.91,33-33.26,16-9.76s37.89.47,39.91,2.72,2.55,3.47,3.53,12.6-.18,12.75,6,14.54c5.35,1.53,5.38,3.86,5.3,8.44C451.16,303.12,451.14,303.87,451.14,304.68Z" style="fill:#A90023"></path><path d="M429.64,265.5s-.32.24-.33.27c-2.79,2.23-16.16,8.74-24.26,20.22s-16.1,26.18-15.93,34.87A6.88,6.88,0,0,1,392,325v5.88c-15.2,13.76-26,25.78-26,25.78l-37.37,1.8-.89,0V334.7l.47-.66,19.22-26.91,33-33.26,16-9.76S418.23,264.39,429.64,265.5Z" style="opacity:0.30000000000000004"></path><path d="M370.16,381.62l53.28-12.83a6.15,6.15,0,0,0,4.65-5.73c.35-8.67,1.75-27.29,7.49-35.2,4.16-5.75,8.43-8.24,11.44-9.32a6.17,6.17,0,0,0,4.11-5.81V300.06a6.16,6.16,0,0,0-5-6.06l-.21,0a6.16,6.16,0,0,1-5-5.4L439,271.27a6.15,6.15,0,0,0-5.63-5.48c-10.93-.86-37-2.45-53.52.44" style="fill:none;stroke:#263238;stroke-linecap:round;stroke-linejoin:round"></path><path d="M421.91,307.13a168.59,168.59,0,0,1,15-9.44" style="fill:none;stroke:#263238;stroke-linecap:round;stroke-linejoin:round"></path><path d="M367.3,354.52a468,468,0,0,1,44.94-40.27" style="fill:none;stroke:#263238;stroke-linecap:round;stroke-linejoin:round"></path><path d="M370.93,342.06s-14.68-27.27-40.92-8.77" style="fill:none;stroke:#263238;stroke-linecap:round;stroke-linejoin:round"></path><path d="M391.94,331.12s1.29-9.63-5.88-12.21-35.59-1.56-35.59-1.56" style="fill:none;stroke:#263238;stroke-linecap:round;stroke-linejoin:round"></path><path d="M389.12,320.86s1.27-30,35.61-51.62" style="fill:none;stroke:#263238;stroke-linecap:round;stroke-linejoin:round"></path><path d="M366.55,350.75s-8.15-14.26-27.18-9.49c-8.23,1.16-14.76,17-14.76,36.46,0,20.15,7,36.49,15.69,36.53l.06.32s14.92,3.38,23.72-4.18S366.55,350.75,366.55,350.75Z" style="fill:#263238"></path><ellipse cx="359.32" cy="379.05" rx="14.16" ry="32.91" style="fill:#222221"></ellipse><ellipse cx="359.32" cy="379.05" rx="14.16" ry="32.91" style="opacity:0.30000000000000004"></ellipse><path d="M362.5,376.92c0,10.39-3.55,18.81-7.92,18.81a3.57,3.57,0,0,1-1.58-.38h0c-3.6-1.76-6.31-9.34-6.31-18.43s2.71-16.67,6.31-18.43h0a3.57,3.57,0,0,1,1.58-.38C359,358.11,362.5,366.54,362.5,376.92Z" style="fill:#fff;stroke:#263238;stroke-miterlimit:10"></path><path d="M359.32,376.92c0,9.09-2.71,16.67-6.32,18.43h0c-3.6-1.76-6.31-9.34-6.31-18.43s2.71-16.67,6.31-18.43h0C356.61,360.25,359.32,367.83,359.32,376.92Z" style="fill:#fff;stroke:#263238;stroke-miterlimit:10"></path><path d="M447,318.54c-4.78,2.54-13.24,6.51-17,25.51-3.37,17,.44,22.7-5.28,24.25-4.45,1.22-38.25,9.42-52.89,13l-.91-7.52,47.77-10.38s-1.71-55.24,32.47-61c0,.71,0,1.46,0,2.27C451.14,310.81,451.79,316,447,318.54Z" style="opacity:0.1"></path><path d="M389.12,318.88s6.32,4.35,9.65,1,26-18.84,36.51-21.33c0,0-34.41,24-45.51,34.35,0,0,5.72-3.05,0-11Z" style="opacity:0.1"></path><path d="M322.47,224.18s2.26,25.07,14,31.35A30,30,0,0,0,354,251.31c4.07-2.54,12.25-26.51,13-28.83l-17.75-2.65-3.4,23.93s-7.77-7.57-12.28-15.17c.58-2.82-2.09-4.49-2.83-6.93C327.32,210.59,322.47,224.18,322.47,224.18Z" style="fill:#fff;stroke:#263238;stroke-linecap:round;stroke-linejoin:round"></path><path d="M388,186.94s5,0,7.08,4.46c0,0,18.89,7.76,22.54,13.18s2,26.91-2.53,36.17a27,27,0,0,1-13.29,12.62L400,261.52l-39.27-.41-3.84-24.65.15-11.55-7.94-4.44s2.35-18.1,5.73-19.8S373,192.9,373,192.9s1-3,3-3.85S388,186.94,388,186.94Z" style="fill:#A90023"></path><path d="M416.32,236.69s-4.82,17.31-8,20.69c0,0-8.55.68-15-.9s-33-12.35-36.19-15.65,2.82-7.34,2.82-7.34a117.46,117.46,0,0,0,12.86,3.75c7.58,1.78,20.82,3,24.54,5.21l3.06-9.46A19.25,19.25,0,0,1,416.32,236.69Z" style="fill:#fff"></path><path d="M367,159.06s-.68,5.32,1.38,15.4,3.73,12.71,6.61,12.41,2.88,1.33,2.88,1.33v6.3s2.87,11.31,4.62,11.95,6.88-8.64,8.13-11.27,1.26-14.32,1.26-14.32l.59-9.21a4.26,4.26,0,0,0,3.41-4.93c-.63-4.14-5.39-9.63-5.39-9.63S375.53,153.52,367,159.06Z" style="fill:#fff"></path><path d="M327.73,255.53s22,1.32,24.25,3.81,1.74,8.46,1.74,8.46l4.54,3.23-7.79,55.82S336,323.1,327.73,338.09Z" style="fill:#263238"></path><path d="M372.52,165.85a7.55,7.55,0,0,1-1.81,6.54,1.31,1.31,0,0,0-.27.35,1.07,1.07,0,0,0,.38,1.2,2.09,2.09,0,0,0,3.21-.53" style="fill:none;stroke:#263238;stroke-linecap:round;stroke-linejoin:round"></path><path d="M372.2,163.15a2.46,2.46,0,0,0-3.47.4" style="fill:none;stroke:#263238;stroke-linecap:round;stroke-linejoin:round"></path><path d="M376.63,162.61a3.24,3.24,0,0,1,4.2,1.34" style="fill:none;stroke:#263238;stroke-linecap:round;stroke-linejoin:round"></path><path d="M371.28,166.93c0,.87-.38,1.57-.85,1.57s-.85-.7-.85-1.57.38-1.58.85-1.58S371.28,166.06,371.28,166.93Z" style="fill:#263238"></path><ellipse cx="377.68" cy="166.93" rx="0.85" ry="1.58" style="fill:#263238"></ellipse><path d="M373.28,177.45s5.05.9,6.4-1.9" style="fill:none;stroke:#263238;stroke-linecap:round;stroke-linejoin:round"></path><path d="M369.58,153s-3.95,6.24-2,17.13,4.05,16,7.45,16.71,13-4.77,15.22-7.12,2.26-8.1,2.26-8.1" style="fill:none;stroke:#263238;stroke-linecap:round;stroke-linejoin:round"></path><path d="M389.67,166.72s.69-3.84,2.56-4.48,3.68,2.48,3.68,4.48-1.74,5.4-4.11,4.93" style="fill:none;stroke:#263238;stroke-linecap:round;stroke-linejoin:round"></path><path d="M391.69,162.53a10.35,10.35,0,0,1-5.38,1.42c-2.54-.27-6.07-4.75-11-4.35s-9.1,3.75-10.71,2.41.81-4.95.81-4.95l1.13-1.43s-.3-3.06-.3-5.61,4.09-6.48,12.52-7,12.18,2.74,13.54,4.24c.32.36,3,3.38,3.64,6.22.7,3.22-.53,7.88-.83,10.51C393.81,161.34,391.69,162.53,391.69,162.53Z" style="fill:#263238"></path><path d="M369.58,155.77s6.95-4.14,15,1.72" style="fill:none;stroke:#fff;stroke-linecap:round;stroke-linejoin:round"></path><path d="M377.9,186.58v7.92s2.57,11.18,4.62,11.95,6.94-8.35,8-10.79c.55-1.31.8-4.37.92-6.94l1.09-17.07" style="fill:none;stroke:#263238;stroke-linecap:round;stroke-linejoin:round"></path><path d="M377.68,188.72s-3.51.13-3.9,2.44-.12,12.33-.89,13.87-2.06,2.57-1.55,3.09,7.52-5.35,9.35-4.41" style="fill:none;stroke:#263238;stroke-linecap:round;stroke-linejoin:round"></path><path d="M385.93,203.67a18,18,0,0,1,5.58,3.55c2.32,2.31,4.12-.17,3.47-.73s-1.54-2.1-.51-6.21.8-11.55-3-13" style="fill:none;stroke:#263238;stroke-linecap:round;stroke-linejoin:round"></path><path d="M349,220.9c1.47-8.08,3.6-18.79,5.81-20.23,3.19-2.07,18.86-7.81,18.86-7.81" style="fill:none;stroke:#263238;stroke-linecap:round;stroke-linejoin:round"></path><polyline points="355.33 226 360.13 259.25 399.95 261.52 401.35 257.66" style="fill:none;stroke:#263238;stroke-linecap:round;stroke-linejoin:round"></polyline><line x1="359.09" y1="235.67" x2="347.18" y2="230.3" style="fill:none;stroke:#222221;stroke-linecap:round;stroke-linejoin:round"></line><path d="M354,239.43a34.13,34.13,0,0,0-14-17.38c-6.39-3.85-13.32-4.69-19.53-2.36s-10.89,7.51-13.17,14.61a30.49,30.49,0,0,0-1.19,5.41l4.79.64a24,24,0,0,1,1-4.57c1.82-5.66,5.45-9.77,10.25-11.57a15.58,15.58,0,0,1,5.45-1,19.14,19.14,0,0,1,9.89,2.95,26.45,26.45,0,0,1,7,6.24,31.54,31.54,0,0,1,4.9,8.69,29.27,29.27,0,0,1,.83,19.11c-1.82,5.66-5.45,9.77-10.25,11.57a16.64,16.64,0,0,1-12.36-.47v5.16a22.15,22.15,0,0,0,6.9,1.13,20.37,20.37,0,0,0,7.15-1.3c6.21-2.33,10.89-7.52,13.17-14.62a31.6,31.6,0,0,0,1.46-9.54A36.41,36.41,0,0,0,354,239.43Z" style="fill:#263238"></path><path d="M327.49,220.83s-2.51,17.38,3.64,22.8,20.3-2.38,20.3-2.38l2.2,6.43s-18.23,3.06-16,21.35l-10.36,1.35V242.43l-8.5-1.09s.53-8.63-5.49-13.38A35.7,35.7,0,0,1,327.49,220.83Z" style="fill:#263238"></path><path d="M357.61,241.78c10,3.51,20.24,10.36,29.31,13.13,10.59,3.23,20.76,2.92,21.37,2.47a111.49,111.49,0,0,0,7.26-18c4-13.63,6.24-30.12,2.1-34.83-5.41-6.15-22.54-13.18-22.54-13.18" style="fill:none;stroke:#263238;stroke-linecap:round;stroke-linejoin:round"></path><path d="M377.9,188.2s.24,5.22,2.79,4.66,9.64-5.76,11.43-15.27a18,18,0,0,1-6.19,5.28c-4.21,2.24-7.2,3.45-7.2,3.45Z" style="fill:#263238"></path><path d="M358.43,230.22c-.49-1.94-1.37-4.12-3.19-4.57a4.38,4.38,0,0,0-1.25-.1c-3.55.08-7.3,1.34-9.35,4.24a2.58,2.58,0,0,0-.56,1.38,1.11,1.11,0,0,0,.82,1.13,1.65,1.65,0,0,0,1-.28,19.93,19.93,0,0,1,4.35-2,4.38,4.38,0,0,1,2.68,0c.17.22.45.87.62,1.09-2.86.18-7.69,1.92-8.81,4.81a1.13,1.13,0,0,0-.09.72c.19.67,1.15.64,1.83.47a48.39,48.39,0,0,1,7.38-1.24c-.92.13-1.82.52-2.73.66-1.64.23-3.49.61-4.33,2a1,1,0,0,0-.15.83c.13.35.56.49.94.54a18.93,18.93,0,0,0,3.75-.26,3.94,3.94,0,0,1,3.44,1.13c.07,1.1.05,1.92.12,3a6.4,6.4,0,0,0,3.54-4,16.8,16.8,0,0,0,.36-7.88C358.7,231.42,358.58,230.83,358.43,230.22Z" style="fill:#fff;stroke:#263238;stroke-linecap:round;stroke-linejoin:round"></path><path d="M397.36,242.45s4.26-9.46,4-17.92" style="fill:none;stroke:#263238;stroke-linecap:round;stroke-linejoin:round"></path><path d="M400.59,261.24s6.34,18.19-1.24,31c-2.87,4.86-35.33,5.45-35.33,5.45l-13.55,29.16-15.29-53.67,24.95-13.93Z" style="fill:#263238"></path><line x1="362.85" y1="296.09" x2="393.77" y2="297.69" style="fill:none;stroke:#263238;stroke-linecap:round;stroke-linejoin:round"></line><path d="M359.43,233c6.61,2.91,21.55,6.42,25.67,6.8,6.73.62,14.74,1.55,18.24,8.22" style="fill:none;stroke:#263238;stroke-linecap:round;stroke-linejoin:round"></path><path d="M400.42,233s7.15-1.91,15.9,3.7" style="fill:none;stroke:#263238;stroke-linecap:round;stroke-linejoin:round"></path><g style="opacity:0.2"><path d="M373.64,265.59c-5.46,1.66-13.48,4.27-21.82,7.59" style="fill:none;stroke:#fff;stroke-linecap:round;stroke-linejoin:round"></path><line x1="367.57" y1="266.84" x2="366.26" y2="263.56" style="fill:none;stroke:#fff;stroke-linecap:round;stroke-linejoin:round"></line></g><line x1="357.61" y1="227.89" x2="356.38" y2="216.16" style="fill:none;stroke:#263238;stroke-linecap:round;stroke-linejoin:round"></line><path d="M316.44,220.4c-1.3,1.41-2.54,3.13-2.38,5a1.23,1.23,0,0,0,.53,1,1.27,1.27,0,0,0,1.34-.42,4.72,4.72,0,0,0,1.31-2.21C317.47,223,318.33,218.36,316.44,220.4Z" style="fill:#fff;stroke:#263238;stroke-linecap:round;stroke-linejoin:round"></path><path d="M320.89,222a19,19,0,0,1-2.44,3.14.35.35,0,0,1-.13.08.28.28,0,0,1-.14-.06,2.58,2.58,0,0,1-.93-1.82,5.82,5.82,0,0,1,.27-2.07,6.6,6.6,0,0,1,2.25-3.66,1.51,1.51,0,0,1,.71-.31,1.55,1.55,0,0,1,.81.18,6.74,6.74,0,0,1,1.18.64A24.27,24.27,0,0,1,320.89,222Z" style="fill:#fff;stroke:#263238;stroke-linecap:round;stroke-linejoin:round"></path><path d="M324.37,215.43c-2.33,1.22-3.62,4.72-3.9,7.16-.1.82,0,1.73,1,1.93a2.43,2.43,0,0,0,2.38-1.25,12.2,12.2,0,0,0,1-2.66,4.17,4.17,0,0,1,1.61-2.28c.72-.48,2-.37,2.21-1.41C329.09,214.88,325.47,214.86,324.37,215.43Z" style="fill:#fff;stroke:#263238;stroke-linecap:round;stroke-linejoin:round"></path><line x1="357.3" y1="224.91" x2="349.05" y2="220.47" style="fill:none;stroke:#263238;stroke-linecap:round;stroke-linejoin:round"></line><polygon points="324.39 76.02 324.39 241.68 305.38 241.79 298.46 243.19 298.46 115.75 298.43 115.76 298.42 115.76 257.02 122.85 256.56 122.93 257.25 234.69 237.13 232.6 237.13 93.28 242.33 91.49 256.56 94.37 256.65 94.35 297.94 84.66 297.99 84.64 298.42 75.52 298.42 75.5 298.46 74.72 305.38 72.55 324.39 76.02" style="fill:#A90023"></polygon><polygon points="298.42 115.76 257.69 122.74 257.02 122.85 256.65 94.35 297.94 84.66 298.36 112.06 298.42 115.76" style="opacity:0.30000000000000004"></polygon><polygon points="298.42 115.76 257.02 122.85 257.08 119.59 298.36 112.06 298.42 115.76" style="opacity:0.2"></polygon><polygon points="242.33 91.49 242.33 233.15 237.13 232.6 237.13 93.28 242.33 91.49" style="opacity:0.2"></polygon><polygon points="305.38 72.55 305.38 241.79 298.46 243.19 298.43 115.76 298.42 75.52 298.42 75.5 298.46 74.72 305.38 72.55" style="opacity:0.2"></polygon><polyline points="324.39 242.6 324.39 76.02 305.39 72.55 298.46 74.72 298.46 244.25" style="fill:none;stroke:#263238;stroke-linecap:round;stroke-linejoin:round"></polyline><line x1="305.39" y1="72.55" x2="305.39" y2="243.19" style="fill:none;stroke:#263238;stroke-linecap:round;stroke-linejoin:round"></line><polyline points="257.25 236.34 256.55 94.36 242.32 91.49 237.13 93.29 237.13 235.19" style="fill:none;stroke:#263238;stroke-linecap:round;stroke-linejoin:round"></polyline><line x1="242.32" y1="91.49" x2="242.32" y2="238.31" style="fill:none;stroke:#263238;stroke-linecap:round;stroke-linejoin:round"></line><line x1="256.55" y1="94.36" x2="298.46" y2="84.71" style="fill:none;stroke:#263238;stroke-linecap:round;stroke-linejoin:round"></line><line x1="256.65" y1="119.67" x2="298.46" y2="111.83" style="fill:none;stroke:#263238;stroke-linecap:round;stroke-linejoin:round"></line><line x1="257.02" y1="122.85" x2="298.46" y2="115.75" style="fill:none;stroke:#263238;stroke-linecap:round;stroke-linejoin:round"></line><path d="M433.38,265.79V152.36c0-4,.12-8.05.2-12.06.06-3.19.52-6.78-1.19-9.6-3.07-5.1-8.52-8.47-13.41-11.64-9.09-5.88-19.18-10.92-29.86-13-13.32-2.63-61.81,137.81-61.81,137.81l.42,11.68s51.29-146,64.39-143.7a58.24,58.24,0,0,1,21.42,8.81c3.61,2.32,7.69,4.24,10.76,7.28,4.58,4.53,4,10.32,4,16.26v26.91q0,24.07,0,48.15v38.37c0,.4-.14,7.54,0,7.56Z" style="fill:#A90023;stroke:#263238;stroke-miterlimit:10"></path><polygon points="326.31 377.33 326.31 411.63 315.69 414.52 280.84 407.71 275 409.37 275 425.6 257.85 429.97 222.04 422.67 217.17 423.95 217.17 441.36 194.32 447.58 162.15 441.11 162.15 424.39 158.48 424.27 121.62 433.55 103.58 429.49 103.58 414.22 95.49 413.37 63.83 421.99 52.11 418.97 52.11 386.9 194.32 381.94 202.92 381.64 326.31 377.33" style="fill:#A90023"></polygon><polygon points="326.31 377.33 326.31 411.63 315.69 414.52 280.84 407.71 275 409.37 275 425.6 257.85 429.97 222.04 422.67 217.17 423.95 217.17 441.36 194.32 447.58 194.32 381.94 202.92 381.64 326.31 377.33" style="opacity:0.1"></polygon><polygon points="194.32 380.93 194.32 447.58 162.15 441.11 162.15 424.39 158.48 424.27 121.62 433.55 103.58 429.49 103.58 414.22 95.49 413.37 63.83 421.99 52.11 418.97 52.11 369.19 194.32 380.93" style="opacity:0.30000000000000004"></polygon><polygon points="124.6 417.87 124.6 433.56 158.48 424.27 124.6 417.87" style="opacity:0.30000000000000004"></polygon><polygon points="257.85 413.24 257.85 429.97 222.04 422.67 257.85 413.24" style="opacity:0.30000000000000004"></polygon><polygon points="315.69 414.52 315.69 397.79 281.46 407.44 315.69 414.52" style="opacity:0.30000000000000004"></polygon><polygon points="66.03 407.7 97.91 413.38 66.03 421.94 66.03 407.7" style="opacity:0.30000000000000004"></polygon><polygon points="327.73 242.47 327.73 382.15 194.32 411.25 46.14 392.44 46.14 242.47 194.32 228.59 327.73 242.47" style="fill:#fff"></polygon><polygon points="179.46 246.03 195.03 244.91 209.18 246.03 209.18 253.86 195.03 252.68 179.46 254.18 179.46 246.03" style="opacity:0.1"></polygon><polygon points="46.14 242.47 46.14 392.44 194.32 411.24 327.73 382.14 327.73 242.47 194.32 228.59 46.14 242.47" style="fill:none;stroke:#263238;stroke-linecap:round;stroke-linejoin:round"></polygon><polyline points="194.32 447.58 194.32 411.24 194.32 228.59" style="fill:none;stroke:#263238;stroke-linecap:round;stroke-linejoin:round"></polyline><polyline points="159.48 423.93 124.6 433.56 103.58 429.49 103.58 414.22 66.03 407.7 66.03 421.94 52.11 418.98 52.11 393.2" style="fill:none;stroke:#263238;stroke-linecap:round;stroke-linejoin:round"></polyline><line x1="66.27" y1="421.99" x2="97.91" y2="413.38" style="fill:none;stroke:#263238;stroke-linecap:round;stroke-linejoin:round"></line><polyline points="257.85 429.98 257.85 413.24 217.16 423.96 217.16 441.36 194.32 447.58 162.14 441.11 162.14 424.39 124.6 417.87 124.6 433.56" style="fill:none;stroke:#263238;stroke-linecap:round;stroke-linejoin:round"></polyline><polygon points="194.32 228.59 194.32 411.25 46.14 392.44 46.14 242.47 194.32 228.59" style="opacity:0.1"></polygon><polyline points="222.04 422.67 257.85 429.88 275 425.6 275 409.37 315.69 397.79 315.69 414.53 317.54 414.02 326.31 411.63 326.31 382.45" style="fill:none;stroke:#263238;stroke-linecap:round;stroke-linejoin:round"></polyline><line x1="315.39" y1="414.66" x2="280.84" y2="407.71" style="fill:none;stroke:#263238;stroke-linecap:round;stroke-linejoin:round"></line><polyline points="46.14 289.66 194.32 284.35 327.73 289.66" style="fill:none;stroke:#263238;stroke-linecap:round;stroke-linejoin:round"></polyline><polyline points="46.14 341.94 194.32 350.51 327.73 338.08" style="fill:none;stroke:#263238;stroke-linecap:round;stroke-linejoin:round"></polyline><line x1="271.54" y1="236.63" x2="271.54" y2="287" style="fill:none;stroke:#263238;stroke-linecap:round;stroke-linejoin:round"></line><line x1="254.27" y1="287" x2="254.27" y2="344.93" style="fill:none;stroke:#263238;stroke-linecap:round;stroke-linejoin:round"></line><line x1="298.12" y1="288.48" x2="298.12" y2="340.38" style="fill:none;stroke:#263238;stroke-linecap:round;stroke-linejoin:round"></line><line x1="269.43" y1="343.52" x2="269.43" y2="394.86" style="fill:none;stroke:#263238;stroke-linecap:round;stroke-linejoin:round"></line><line x1="136.43" y1="234.01" x2="136.43" y2="347.02" style="fill:none;stroke:#263238;stroke-linecap:round;stroke-linejoin:round"></line><line x1="69.55" y1="240.28" x2="69.55" y2="288.48" style="fill:none;stroke:#263238;stroke-linecap:round;stroke-linejoin:round"></line><line x1="86.67" y1="288.21" x2="86.67" y2="344.3" style="fill:none;stroke:#263238;stroke-linecap:round;stroke-linejoin:round"></line><line x1="107.53" y1="400.23" x2="107.53" y2="345.39" style="fill:none;stroke:#263238;stroke-linecap:round;stroke-linejoin:round"></line><polygon points="46.27 311.37 58.8 311.37 58.8 318.78 46.27 318.65 46.27 311.37" style="opacity:0.1"></polygon><polygon points="243.56 310.07 243.56 318.4 265.14 317.3 265.14 310.42 243.56 310.07" style="opacity:0.1"></polygon><polygon points="95.66 367.78 95.66 376.28 120.23 378.75 120.23 369.19 95.66 367.78" style="opacity:0.1"></polygon></g><g id="freepik--Clouds--inject-41"><path d="M195.72,123.52c-6.18-3.36-9.06-.56-11.32-3.36s6.23-10.19-10.75-17.54c0,0-1.09-15.85-24.34-16.42s-17,15.82-23.2,19.78-7.92-2.26-14.12,1.7-3.4,11.89-8.5,13-11.88-5.1-18.11-1.09-6.22,7.36-9,7.36-8.49-2.26-11.88,0-7.36,5.09-7.36,5.09H200.24S202,126.92,195.72,123.52Z" style="fill:none;stroke:#263238;stroke-linecap:round;stroke-linejoin:round"></path><path d="M111,121.25a19.51,19.51,0,0,1-2.53,1.2" style="fill:none;stroke:#263238;stroke-linecap:round;stroke-linejoin:round"></path><path d="M141.64,94.77a9.63,9.63,0,0,0-5.51,6.93c-1.09,5.18-3.46,8.62-6.22,9s-13.15-.71-14.85,3.08a15.68,15.68,0,0,0-1,3.48" style="fill:none;stroke:#263238;stroke-linecap:round;stroke-linejoin:round"></path><path d="M202.65,170.88c-2.44-1.32-3.55-.22-4.43-1.32s2.43-4-4.2-6.86c0,0-.45-6.19-9.51-6.41s-6.63,6.19-9.07,7.74-3.09-.88-5.53.66-1.32,4.65-3.31,5.09-4.64-2-7.07-.44-2.43,2.87-3.54,2.87-3.32-.88-4.64,0-2.88,2-2.88,2h55.94S205.07,172.21,202.65,170.88Z" style="fill:none;stroke:#263238;stroke-linecap:round;stroke-linejoin:round"></path><path d="M169.57,170a9.76,9.76,0,0,1-1,.47" style="fill:none;stroke:#263238;stroke-linecap:round;stroke-linejoin:round"></path><path d="M181.52,159.65a3.79,3.79,0,0,0-2.18,2.69c-.4,2-1.34,3.38-2.42,3.51s-5.13-.26-5.8,1.22a5.72,5.72,0,0,0-.38,1.36" style="fill:none;stroke:#263238;stroke-linecap:round;stroke-linejoin:round"></path></g></svg>